<?xml version="1.0" encoding="UTF-8" standalone="no"?>
<!-- Created with Inkscape (http://www.inkscape.org/) -->

<svg
   xmlns:dc="http://purl.org/dc/elements/1.1/"
   xmlns:cc="http://creativecommons.org/ns#"
   xmlns:rdf="http://www.w3.org/1999/02/22-rdf-syntax-ns#"
   xmlns:svg="http://www.w3.org/2000/svg"
   xmlns="http://www.w3.org/2000/svg"
   xmlns:xlink="http://www.w3.org/1999/xlink"
   xmlns:sodipodi="http://sodipodi.sourceforge.net/DTD/sodipodi-0.dtd"
   xmlns:inkscape="http://www.inkscape.org/namespaces/inkscape"
   width="128"
   height="128"
   viewBox="0 0 128 128"
   id="svg4157"
   version="1.1"
   inkscape:version="0.91 r13725"
   sodipodi:docname="nogun_machinegun.svg"
   inkscape:export-filename="D:\downloads\icons\weapon\nogun_machinegun.png"
   inkscape:export-xdpi="180"
   inkscape:export-ydpi="180"
   shape-rendering="crispEdges">
  <defs
     id="defs4159">
    <filter
       style="color-interpolation-filters:sRGB;"
       inkscape:label="Blur"
       id="filter4175">
      <feGaussianBlur
         stdDeviation="1 1"
         result="blur"
         id="feGaussianBlur4177" />
    </filter>
    <filter
       style="color-interpolation-filters:sRGB;"
       inkscape:label="Blur"
       id="filter4179">
      <feGaussianBlur
         stdDeviation="1 1"
         result="blur"
         id="feGaussianBlur4181" />
    </filter>
    <clipPath
       clipPathUnits="userSpaceOnUse"
       id="clipPath3015">
      <path
         inkscape:export-ydpi="90"
         inkscape:export-xdpi="90"
         inkscape:export-filename="/home/style/allicons.png"
         sodipodi:nodetypes="ccccc"
         inkscape:connector-curvature="0"
         id="path3017"
         d="M -255.00959,727.77687 -87.516134,784.39038 -215.83828,853.4991 -493.77329,784.37267 Z"
         style="fill:#00d3e5;fill-opacity:1;stroke:none" />
    </clipPath>
    <linearGradient
       y2="357.63239"
       x2="1074.4446"
       y1="357.63239"
       x1="740.82019"
       gradientTransform="matrix(0.70710678,0.70710678,-0.70710678,0.70710678,235.94788,695.47198)"
       gradientUnits="userSpaceOnUse"
       id="linearGradient4078"
       xlink:href="#linearGradient3837-2-7"
       inkscape:collect="always" />
    <linearGradient
       id="linearGradient3837-2-7">
      <stop
         id="stop3839-9-8"
         offset="0"
         style="stop-color:#2e4f67;stop-opacity:0.20353982;" />
      <stop
         id="stop3841-81-8"
         offset="1"
         style="stop-color:#7e9cbd;stop-opacity:0.10619469;" />
    </linearGradient>
    <linearGradient
       y2="357.63239"
       x2="1074.4446"
       y1="357.63239"
       x1="740.82019"
       gradientTransform="matrix(0.70710678,0.70710678,-0.70710678,0.70710678,-1476.0521,355.47198)"
       gradientUnits="userSpaceOnUse"
       id="linearGradient4174"
       xlink:href="#linearGradient3837-2-7"
       inkscape:collect="always" />
    <clipPath
       id="clipPath8398-05"
       clipPathUnits="userSpaceOnUse">
      <rect
         ry="33.474174"
         y="-834.57935"
         x="-2447.2148"
         height="272.94321"
         width="272.94321"
         id="rect8400-7"
         style="fill:#7a878c;fill-opacity:1;stroke:none" />
    </clipPath>
    <clipPath
       id="clipPath8708-2"
       clipPathUnits="userSpaceOnUse">
      <rect
         ry="33.474174"
         y="-833.16516"
         x="-2153.0583"
         height="272.94321"
         width="272.94321"
         id="rect8710-7"
         style="fill:#ebe24b;fill-opacity:1;stroke:none" />
    </clipPath>
    <clipPath
       id="clipPath9000-0"
       clipPathUnits="userSpaceOnUse">
      <rect
         ry="33.474174"
         y="-541.83716"
         x="-2444.3862"
         height="272.94321"
         width="272.94321"
         id="rect9002-8"
         style="fill:#25cb5e;fill-opacity:1;stroke:none" />
    </clipPath>
    <filter
       id="filter4175-4"
       inkscape:label="Blur"
       style="color-interpolation-filters:sRGB;">
      <feGaussianBlur
         id="feGaussianBlur4177-0"
         result="blur"
         stdDeviation="1 1" />
    </filter>
    <filter
       id="filter4179-9"
       inkscape:label="Blur"
       style="color-interpolation-filters:sRGB;">
      <feGaussianBlur
         id="feGaussianBlur4181-3"
         result="blur"
         stdDeviation="1 1" />
    </filter>
    <clipPath
       id="clipPath3015-7"
       clipPathUnits="userSpaceOnUse">
      <path
         style="fill:#00d3e5;fill-opacity:1;stroke:none"
         d="M -255.00959,727.77687 -87.516134,784.39038 -215.83828,853.4991 -493.77329,784.37267 Z"
         id="path3017-3"
         inkscape:connector-curvature="0"
         sodipodi:nodetypes="ccccc"
         inkscape:export-filename="/home/style/allicons.png"
         inkscape:export-xdpi="90"
         inkscape:export-ydpi="90" />
    </clipPath>
    <clipPath
       clipPathUnits="userSpaceOnUse"
       id="clipPath3107">
      <path
         sodipodi:nodetypes="ccczcccc"
         inkscape:connector-curvature="0"
         id="path3109"
         d="m -891.68389,621.48382 136.35082,-1.2e-4 6e-5,4.96764 c 0,0 110.79005,4.2879 110.79006,26.92945 -1.2e-4,22.6414 -110.79011,26.53735 -110.79011,26.53735 l -10e-6,5.35974 -136.35082,1.3e-4 z"
         style="fill:#bcc8ca;fill-opacity:1;stroke:none" />
    </clipPath>
    <clipPath
       clipPathUnits="userSpaceOnUse"
       id="clipPath3111">
      <path
         sodipodi:nodetypes="ccczcccc"
         inkscape:connector-curvature="0"
         id="path3113"
         d="m -891.68389,697.17069 136.3509,-7e-5 -7e-5,4.9675 c 0,0 110.79016,4.28808 110.79004,26.92947 0,22.64156 -110.79004,26.53742 -110.79004,26.53742 l 0,5.35987 -136.3509,-7e-5 z"
         style="fill:#bcc8ca;fill-opacity:1;stroke:none" />
    </clipPath>
    <clipPath
       clipPathUnits="userSpaceOnUse"
       id="clipPath3115">
      <path
         sodipodi:nodetypes="ccczcccc"
         inkscape:connector-curvature="0"
         id="path3117"
         d="m -891.68396,772.9917 136.35083,-1.4e-4 0,4.96757 c 0,0 110.79006,4.28789 110.79006,26.92945 0,22.64156 -110.79006,26.53744 -110.79006,26.53744 l -7e-5,5.35965 -136.35084,1.5e-4 z"
         style="fill:#bcc8ca;fill-opacity:1;stroke:none" />
    </clipPath>
  </defs>
  <sodipodi:namedview
     id="base"
     pagecolor="#4f4f4f"
     bordercolor="#666666"
     borderopacity="1.0"
     inkscape:pageopacity="0"
     inkscape:pageshadow="2"
     inkscape:zoom="2.8284272"
     inkscape:cx="54.660069"
     inkscape:cy="37.878974"
     inkscape:document-units="px"
     inkscape:current-layer="layer1"
     showgrid="true"
     units="px"
     inkscape:window-width="1600"
     inkscape:window-height="843"
     inkscape:window-x="-9"
     inkscape:window-y="23"
     inkscape:window-maximized="1"
     inkscape:object-nodes="true"
     inkscape:object-paths="true"
     inkscape:snap-intersection-paths="true"
     inkscape:snap-bbox="true"
     inkscape:snap-smooth-nodes="true"
     inkscape:snap-global="true">
    <inkscape:grid
       type="xygrid"
       id="grid3336"
       empspacing="8"
       dotted="false"
       color="#ffffff"
       opacity="1"
       empcolor="#0000e6"
       empopacity="0.25098039" />
  </sodipodi:namedview>
  <metadata
     id="metadata4162">
    <rdf:RDF>
      <cc:Work
         rdf:about="">
        <dc:format>image/svg+xml</dc:format>
        <dc:type
           rdf:resource="http://purl.org/dc/dcmitype/StillImage" />
        <dc:title></dc:title>
      </cc:Work>
    </rdf:RDF>
  </metadata>
  <g
     inkscape:label="Layer 1"
     inkscape:groupmode="layer"
     id="layer1"
     transform="translate(0,-924.36216)">
    <path
       sodipodi:nodetypes="cccsscccc"
       inkscape:connector-curvature="0"
       id="rect6742-8-7-30-7-7-4-9"
       d="m 48,1028.3622 36,-36.00004 2,2 c 0,0 23,-22 32,-22 1,0 2,1 2,2 0,9 -22,32.00004 -22,32.00004 l 2,2 -36,36 z"
       style="fill:#aeaeae;fill-opacity:1;stroke:none" />
    <path
       style="fill:#000000;fill-opacity:1;stroke:none;opacity:0.2"
       d="M 119.375 48.625 L 56 112 L 64 120 L 100 84 L 98 82 C 98 82 120 59 120 50 C 120 49.5 119.75 49 119.375 48.625 z "
       transform="translate(0,924.36216)"
       id="rect6742-8-7-30-7-7-4-9-3" />
    <path
       sodipodi:nodetypes="cccsscccc"
       inkscape:connector-curvature="0"
       id="rect6742-8-7-30-7-7-4-9-8"
       d="m 28,1008.3622 36,-36.00008 2,2 c 0,0 23,-22.00004 32,-22.00004 1,0 2,1 2,2 0,9 -22,32.00004 -22,32.00004 l 2,2 -36,36.00008 z"
       style="fill:#aeaeae;fill-opacity:1;stroke:none" />
    <path
       inkscape:connector-curvature="0"
       style="opacity:0.2;fill:#000000;fill-opacity:1;stroke:none"
       d="M 99.375,952.98708 36,1016.3622 l 8,8 36,-36.00008 -2,-2 c 0,0 22,-23.00004 22,-32.00004 0,-0.5 -0.25,-1 -0.625,-1.375 z"
       id="rect6742-8-7-30-7-7-4-9-3-3" />
    <path
       sodipodi:nodetypes="cccsscccc"
       inkscape:connector-curvature="0"
       id="rect6742-8-7-30-7-7-4-9-4"
       d="m 8,988.36216 36,-36.00004 2,2 c 0,0 23,-22 32,-22 1,0 2,1 2,2 0,9 -22,32.00004 -22,32.00004 l 2,2 -36,36.00004 z"
       style="fill:#aeaeae;fill-opacity:1;stroke:none" />
    <path
       inkscape:connector-curvature="0"
       style="opacity:0.2;fill:#000000;fill-opacity:1;stroke:none"
       d="M 79.375,932.98712 16,996.36216 l 8,8.00004 36,-36.00008 -2,-2 c 0,0 22,-23 22,-32 0,-0.5 -0.25,-1 -0.625,-1.375 z"
       id="rect6742-8-7-30-7-7-4-9-3-0" />
    <g
       transform="translate(0,8e-5)"
       id="g4193">
      <path
         inkscape:connector-curvature="0"
         id="path4156-7"
         d="m 52,992.36208 -12,-12 12,-12 12,12 12,-12 12,12 -12,12 12,12.00012 -12,12 -12,-12 -12,12 -12,-12 z"
         style="opacity:0.25;fill:#000000;fill-opacity:1;fill-rule:evenodd;stroke:none;stroke-width:1px;stroke-linecap:butt;stroke-linejoin:miter;stroke-opacity:1" />
      <path
         inkscape:connector-curvature="0"
         id="path4156"
         d="m 52,988.36216 -12,-12 12,-12 12,12 12,-12 12,12 -12,12 12,12.00004 -12,12 -12,-12 -12,12 -12,-12 z"
         style="fill:#ff0101;fill-opacity:1;fill-rule:evenodd;stroke:none;stroke-width:1px;stroke-linecap:butt;stroke-linejoin:miter;stroke-opacity:1" />
    </g>
  </g>
</svg>
