<?xml version="1.0" encoding="UTF-8" standalone="no"?>
<!-- Created with Inkscape (http://www.inkscape.org/) -->

<svg
   xmlns:dc="http://purl.org/dc/elements/1.1/"
   xmlns:cc="http://creativecommons.org/ns#"
   xmlns:rdf="http://www.w3.org/1999/02/22-rdf-syntax-ns#"
   xmlns:svg="http://www.w3.org/2000/svg"
   xmlns="http://www.w3.org/2000/svg"
   xmlns:xlink="http://www.w3.org/1999/xlink"
   xmlns:sodipodi="http://sodipodi.sourceforge.net/DTD/sodipodi-0.dtd"
   xmlns:inkscape="http://www.inkscape.org/namespaces/inkscape"
   width="128"
   height="128"
   viewBox="0 0 128 128"
   id="svg4157"
   version="1.1"
   inkscape:version="0.91 r13725"
   sodipodi:docname="quad.svg"
   inkscape:export-filename="D:\downloads\icons\powerup\quad.png"
   inkscape:export-xdpi="180"
   inkscape:export-ydpi="180"
   shape-rendering="crispEdges">
  <defs
     id="defs4159">
    <filter
       style="color-interpolation-filters:sRGB;"
       inkscape:label="Blur"
       id="filter4175">
      <feGaussianBlur
         stdDeviation="1 1"
         result="blur"
         id="feGaussianBlur4177" />
    </filter>
    <filter
       style="color-interpolation-filters:sRGB;"
       inkscape:label="Blur"
       id="filter4179">
      <feGaussianBlur
         stdDeviation="1 1"
         result="blur"
         id="feGaussianBlur4181" />
    </filter>
    <defs
       id="defs4153">
      <rect
         id="SVGID_1_"
         x="410.39999"
         y="58.599998"
         width="149"
         height="142.3" />
    </defs>
    <clipPath
       id="SVGID_2_">
      <use
         height="100%"
         width="100%"
         y="0"
         x="0"
         style="overflow:visible"
         xlink:href="#SVGID_1_"
         overflow="visible"
         id="use4157" />
    </clipPath>
  </defs>
  <sodipodi:namedview
     id="base"
     pagecolor="#c9c9c9"
     bordercolor="#666666"
     borderopacity="1.0"
     inkscape:pageopacity="0"
     inkscape:pageshadow="2"
     inkscape:zoom="2"
     inkscape:cx="-68.695588"
     inkscape:cy="77.748109"
     inkscape:document-units="px"
     inkscape:current-layer="layer1"
     showgrid="true"
     units="px"
     inkscape:window-width="1600"
     inkscape:window-height="843"
     inkscape:window-x="-9"
     inkscape:window-y="23"
     inkscape:window-maximized="1"
     inkscape:object-nodes="true"
     inkscape:object-paths="true"
     inkscape:snap-intersection-paths="false"
     inkscape:snap-bbox="true"
     inkscape:snap-smooth-nodes="true"
     inkscape:snap-global="true">
    <inkscape:grid
       type="xygrid"
       id="grid3336"
       empspacing="2"
       dotted="false"
       color="#ffffff"
       opacity="1"
       empcolor="#0000e6"
       empopacity="0.25098039" />
  </sodipodi:namedview>
  <metadata
     id="metadata4162">
    <rdf:RDF>
      <cc:Work
         rdf:about="">
        <dc:format>image/svg+xml</dc:format>
        <dc:type
           rdf:resource="http://purl.org/dc/dcmitype/StillImage" />
        <dc:title></dc:title>
      </cc:Work>
    </rdf:RDF>
  </metadata>
  <g
     inkscape:label="Layer 1"
     inkscape:groupmode="layer"
     id="layer1"
     transform="translate(0,-924.36216)">
    <circle
       style="opacity:0.25;fill:#ffcc00;fill-opacity:1;stroke:none"
       id="path4591-5-0-4-5-4-2"
       cx="64"
       cy="988.36218"
       r="56" />
    <ellipse
       style="opacity:0.5;fill:#000000;fill-opacity:1;stroke:none"
       id="path4591-5-0-4-5-4-7-7"
       cx="64"
       cy="988.36218"
       rx="56"
       ry="56.000008" />
    <path
       id="path4191-4-9"
       d="m 56,998.36212 16,0 4,-12 -16,0 z m -34,30.00008 -6,-12 68,0 -6,-6 -42,0 8,-24.00008 -12,-12.00004 6,-17.99996 72,-4e-5 6,12 -68,4e-5 6,6 42,-4e-5 -8,24.00004 12,12.00008 -6,18 z"
       inkscape:connector-curvature="0"
       style="opacity:0.25;fill:#000000;fill-opacity:1;stroke:none"
       sodipodi:nodetypes="cccccccccccccccccccccc" />
    <path
       style="color:#000000;display:inline;overflow:visible;visibility:visible;fill:#ffcc00;fill-opacity:1;fill-rule:evenodd;stroke:none;stroke-width:1px;stroke-linecap:butt;stroke-linejoin:miter;stroke-miterlimit:4;stroke-dasharray:none;stroke-dashoffset:0;stroke-opacity:1;marker:none;enable-background:accumulate"
       d="m 64,928.36216 a 60,60 0 0 0 -60,60 60,60 0 0 0 60,60.00004 60,60 0 0 0 60,-60.00004 60,60 0 0 0 -60,-60 z m 0,8 a 52,52 0 0 1 52,52 52,52 0 0 1 -52,52.00004 52,52 0 0 1 -52,-52.00004 52,52 0 0 1 52,-52 z"
       id="path4142"
       inkscape:connector-curvature="0" />
    <path
       id="path4191-4"
       d="m 54,994.36216 16,0 4,-12 -16,0 z m -34,30.00004 -6,-12 68,0 -6,-6 -42,0 8,-24.00004 -12,-12.00004 6,-17.99996 72,-4e-5 6,12 -68,4e-5 6,6 42,-4e-5 -8,24.00004 12,12.00004 -6,18 z"
       inkscape:connector-curvature="0"
       style="opacity:1;fill:#ffcc07;fill-opacity:1;stroke:none"
       sodipodi:nodetypes="cccccccccccccccccccccc" />
  </g>
</svg>
