<?xml version="1.0" encoding="UTF-8" standalone="no"?>
<!-- Created with Inkscape (http://www.inkscape.org/) -->

<svg
   xmlns:dc="http://purl.org/dc/elements/1.1/"
   xmlns:cc="http://creativecommons.org/ns#"
   xmlns:rdf="http://www.w3.org/1999/02/22-rdf-syntax-ns#"
   xmlns:svg="http://www.w3.org/2000/svg"
   xmlns="http://www.w3.org/2000/svg"
   xmlns:xlink="http://www.w3.org/1999/xlink"
   xmlns:sodipodi="http://sodipodi.sourceforge.net/DTD/sodipodi-0.dtd"
   xmlns:inkscape="http://www.inkscape.org/namespaces/inkscape"
   width="256"
   height="128"
   viewBox="0 0 256 128"
   id="svg4157"
   version="1.1"
   inkscape:version="0.91 r13725"
   sodipodi:docname="act_jump_wide.svg"
   inkscape:export-filename="D:\downloads\Buttons\sources\act_jump_wide.png"
   inkscape:export-xdpi="90"
   inkscape:export-ydpi="90">
  <defs
     id="defs4159">
    <filter
       style="color-interpolation-filters:sRGB;"
       inkscape:label="Blur"
       id="filter4175">
      <feGaussianBlur
         stdDeviation="1 1"
         result="blur"
         id="feGaussianBlur4177" />
    </filter>
    <filter
       style="color-interpolation-filters:sRGB;"
       inkscape:label="Blur"
       id="filter4179">
      <feGaussianBlur
         stdDeviation="1 1"
         result="blur"
         id="feGaussianBlur4181" />
    </filter>
  </defs>
  <sodipodi:namedview
     id="base"
     pagecolor="#7ebda3"
     bordercolor="#666666"
     borderopacity="1.0"
     inkscape:pageopacity="0"
     inkscape:pageshadow="2"
     inkscape:zoom="4"
     inkscape:cx="128.03895"
     inkscape:cy="78.046173"
     inkscape:document-units="px"
     inkscape:current-layer="layer1"
     showgrid="true"
     units="px"
     inkscape:window-width="1600"
     inkscape:window-height="843"
     inkscape:window-x="-9"
     inkscape:window-y="23"
     inkscape:window-maximized="1"
     inkscape:object-nodes="true"
     inkscape:object-paths="true"
     inkscape:snap-intersection-paths="false"
     inkscape:snap-bbox="true"
     inkscape:snap-smooth-nodes="true"
     inkscape:snap-global="true"
     inkscape:snap-nodes="true">
    <inkscape:grid
       type="xygrid"
       id="grid3336"
       empspacing="4"
       dotted="false"
       color="#ffffff"
       opacity="1"
       empcolor="#0000e6"
       empopacity="0.25098039" />
  </sodipodi:namedview>
  <metadata
     id="metadata4162">
    <rdf:RDF>
      <cc:Work
         rdf:about="">
        <dc:format>image/svg+xml</dc:format>
        <dc:type
           rdf:resource="http://purl.org/dc/dcmitype/StillImage" />
        <dc:title />
      </cc:Work>
    </rdf:RDF>
  </metadata>
  <g
     inkscape:label="Layer 1"
     inkscape:groupmode="layer"
     id="layer1"
     transform="translate(0,-924.36216)">
    <g
       id="g4183">
      <path
         inkscape:connector-curvature="0"
         id="path3349-5-8"
         d="m 43.030118,932.36216 c -11.56061,0 -25.2621,7.46666 -26.97478,22.40003 l -7.7070799,67.20001 c -1.28451,11.2 7.7070799,22.4 19.2676999,22.4 l 61.65662,0 c 0.71697,0 1.44321,-0.03 2.17327,-0.088 0.55398,0.052 1.113,0.088 1.68028,0.088 l 61.656632,0 57.80309,0 c 11.56061,0 25.2621,-7.4667 26.97477,-22.4 l 7.70708,-67.20001 C 248.55221,943.56216 239.56062,932.36216 228,932.36216 l -57.80309,0 -61.65663,0 c -0.71757,0 -1.44256,0.0299 -2.17325,0.0875 -0.55398,-0.0526 -1.11302,-0.0875 -1.68029,-0.0875 l -61.656622,0 z"
         style="opacity:0.25;fill:#e0e0e0;fill-opacity:1" />
      <path
         sodipodi:nodetypes="cssccsscc"
         inkscape:connector-curvature="0"
         id="path3349-5"
         d="m 43.136742,932.36204 c -11.59604,0 -25.33948,7.46664 -27.05742,22.40002 l -7.7306897,67.20004 c -1.28844,11.2 7.7306897,22.4001 19.3267197,22.4001 36.72078,0 144.950428,0 185.536548,0 11.59603,0 25.33949,-7.4667 27.05741,-22.4001 L 248,954.76206 c 1.28844,-11.20004 -7.73069,-22.40006 -19.32672,-22.40006 -65.97878,0.009 -123.16105,-0.0132 -185.536538,4e-5 z"
         style="opacity:0.25;fill:#000000;fill-opacity:1" />
      <path
         sodipodi:nodetypes="csssccssccccccccccc"
         inkscape:connector-curvature="0"
         id="path3349-0-7"
         d="m 40.090054,928.37851 c -11.98772,0 -26.195386,7.99879 -27.971347,23.99638 l -7.9918123,71.98931 c -1.331966,11.9982 7.9918123,23.9964 19.9795333,23.9964 l 35.963162,0 c 51.19098,-0.082 106.11299,0.015 155.84036,0 11.98772,0 26.19538,-7.9398 27.97134,-23.9374 l 7.99182,-71.98973 c 1.33196,-11.99819 -7.99182,-24.05496 -19.97954,-24.05496 -67.51997,-0.0369 -128.70151,-10e-6 -191.803516,0 z m 183.811706,7.99879 c 12.54769,-0.039 18.01371,6.27898 18.69569,15.94293 -1.43525,21.873 -4.62853,44.19844 -6.70797,66.04487 -0.99898,12.9981 -10.38442,21.853 -22.07309,21.9956 -63.83891,-0.059 -121.87515,-4e-4 -181.253775,0.021 -12.547696,-0.019 -18.573683,-6.24 -19.255665,-15.9039 1.43525,-21.8735 4.628529,-43.67553 6.707969,-65.52187 0.998976,-12.58126 10.384422,-22.43605 22.073089,-22.57863 59.842992,-10e-4 128.428982,-0.0391 181.813752,0 z"
         style="opacity:1;fill:#e0e0e0;fill-opacity:1;filter:url(#filter4175)" />
      <path
         sodipodi:nodetypes="ccccsccssscccc"
         inkscape:connector-curvature="0"
         id="path4149-9"
         d="m 160,984.36216 -16,0 c -0.0793,0.14765 0,12 0,20.00004 0,20 -4,24 -24,24 -20,0 -24,-4 -24,-24 l 0,-4 16,0 0,4 c 0,8 0,8 8,8 8,0 8,0 8,-8 l 0,-20.00004 -16,0 c 8,-12.00004 16,-24.00004 24,-36.00004 8,12 16,24 24,36.00004 z"
         style="fill:#e0e0e0;fill-opacity:1;filter:url(#filter4179)" />
      <image
         sodipodi:absref="D:\downloads\Buttons\sources\..\..\..\Programs\Warsow_master\warsow\basewsw\gfx\hud\keys\act_crouch.tga"
         xlink:href="..\..\..\Programs\Warsow_master\warsow\basewsw\gfx\hud\keys\act_crouch.tga"
         width="126.57143"
         height="131.57146"
         preserveAspectRatio="none"
         style="opacity:0;image-rendering:optimizeQuality"
         id="image4168"
         x="0.89285719"
         y="922.2193" />
      <path
         sodipodi:nodetypes="csssccssccccccccccc"
         inkscape:connector-curvature="0"
         id="path3349-0"
         d="m 40.090054,928.37861 c -11.98772,0 -26.195386,7.99879 -27.971347,23.99638 l -7.9918124,71.98921 c -1.3319656,11.9982 7.9918124,23.9964 19.9795334,23.9964 l 35.96316,0 c 51.190982,-0.082 106.112992,0.015 155.840362,0 11.98772,0 26.19538,-7.9398 27.97134,-23.9374 l 7.99182,-71.98963 c 1.33196,-11.99819 -7.99182,-24.05496 -19.97954,-24.05496 -67.51997,-0.0369 -128.70151,-10e-6 -191.803516,0 z m 183.811706,7.99879 c 12.54769,-0.039 18.01371,6.27898 18.69569,15.94293 -1.43525,21.873 -4.62853,44.19844 -6.70797,66.04477 -0.99898,12.9981 -10.38442,21.853 -22.07309,21.9956 -63.83891,-0.059 -121.875151,-4e-4 -181.253775,0.021 -12.547696,-0.019 -18.573683,-6.24 -19.255665,-15.9039 1.43525,-21.8734 4.628529,-43.67543 6.707969,-65.52177 0.998976,-12.58126 10.384422,-22.43605 22.073089,-22.57863 59.842992,-10e-4 128.428982,-0.0391 181.813752,0 z"
         style="opacity:1;fill:#e0e0e0;fill-opacity:1" />
      <path
         sodipodi:nodetypes="ccccsccssscccc"
         inkscape:connector-curvature="0"
         id="path4149"
         d="m 160,984.36216 -16,0 c -0.0793,0.14765 0,12 0,20.00004 0,20 -4,24 -24,24 -20,0 -24,-4 -24,-24 l 0,-4 16,0 0,4 c 0,8 0,8 8,8 8,0 8,0 8,-8 l 0,-20.00004 -16,0 c 8,-12.00004 16,-24.00004 24,-36.00004 8,12 16,24 24,36.00004 z"
         style="fill:#e0e0e0;fill-opacity:1" />
    </g>
  </g>
</svg>
