<?xml version="1.0" encoding="UTF-8" standalone="no"?>
<!-- Created with Inkscape (http://www.inkscape.org/) -->

<svg
   xmlns:dc="http://purl.org/dc/elements/1.1/"
   xmlns:cc="http://creativecommons.org/ns#"
   xmlns:rdf="http://www.w3.org/1999/02/22-rdf-syntax-ns#"
   xmlns:svg="http://www.w3.org/2000/svg"
   xmlns="http://www.w3.org/2000/svg"
   xmlns:xlink="http://www.w3.org/1999/xlink"
   xmlns:sodipodi="http://sodipodi.sourceforge.net/DTD/sodipodi-0.dtd"
   xmlns:inkscape="http://www.inkscape.org/namespaces/inkscape"
   width="256"
   height="128"
   viewBox="0 0 256 128"
   id="svg4157"
   version="1.1"
   inkscape:version="0.91 r13725"
   sodipodi:docname="act_fire_wide_flip.svg"
   inkscape:export-filename="D:\downloads\Buttons\sources\act_fire_wide_flip.png"
   inkscape:export-xdpi="90"
   inkscape:export-ydpi="90">
  <defs
     id="defs4159">
    <filter
       style="color-interpolation-filters:sRGB;"
       inkscape:label="Blur"
       id="filter4175">
      <feGaussianBlur
         stdDeviation="1 1"
         result="blur"
         id="feGaussianBlur4177" />
    </filter>
    <filter
       style="color-interpolation-filters:sRGB;"
       inkscape:label="Blur"
       id="filter4179">
      <feGaussianBlur
         stdDeviation="1 1"
         result="blur"
         id="feGaussianBlur4181" />
    </filter>
  </defs>
  <sodipodi:namedview
     id="base"
     pagecolor="#7ebda3"
     bordercolor="#666666"
     borderopacity="1.0"
     inkscape:pageopacity="0"
     inkscape:pageshadow="2"
     inkscape:zoom="2.8284271"
     inkscape:cx="87.756132"
     inkscape:cy="68.589312"
     inkscape:document-units="px"
     inkscape:current-layer="layer1"
     showgrid="true"
     units="px"
     inkscape:window-width="1600"
     inkscape:window-height="843"
     inkscape:window-x="-9"
     inkscape:window-y="23"
     inkscape:window-maximized="1"
     inkscape:object-nodes="true"
     inkscape:object-paths="true"
     inkscape:snap-intersection-paths="false"
     inkscape:snap-bbox="true"
     inkscape:snap-smooth-nodes="true"
     inkscape:snap-global="true"
     inkscape:snap-nodes="true">
    <inkscape:grid
       type="xygrid"
       id="grid3336"
       empspacing="4"
       dotted="false"
       color="#ffffff"
       opacity="1"
       empcolor="#0000e6"
       empopacity="0.25098039" />
  </sodipodi:namedview>
  <metadata
     id="metadata4162">
    <rdf:RDF>
      <cc:Work
         rdf:about="">
        <dc:format>image/svg+xml</dc:format>
        <dc:type
           rdf:resource="http://purl.org/dc/dcmitype/StillImage" />
        <dc:title></dc:title>
      </cc:Work>
    </rdf:RDF>
  </metadata>
  <g
     inkscape:label="Layer 1"
     inkscape:groupmode="layer"
     id="layer1"
     transform="translate(0,-924.36216)">
    <g
       id="g4183">
      <path
         inkscape:connector-curvature="0"
         id="path3349-5-8"
         d="m 212.58584,932.36216 c 11.56061,0 25.2621,7.46666 26.97478,22.40003 l 7.70708,67.20001 c 1.28451,11.2 -7.70708,22.4 -19.2677,22.4 l -61.65662,0 c -0.71697,0 -1.44321,-0.03 -2.17327,-0.088 -0.55398,0.052 -1.113,0.088 -1.68028,0.088 l -61.65663,0 -57.803089,0 c -11.560617,0 -25.262098,-7.4667 -26.974775,-22.4 L 8.348258,954.76219 c -1.2845095,-11.20003 7.707078,-22.40003 19.267697,-22.40003 l 57.80309,0 61.656635,0 c 0.71757,0 1.44256,0.0299 2.17325,0.0875 0.55398,-0.0526 1.11302,-0.0875 1.68029,-0.0875 l 61.65662,0 z"
         style="opacity:0.25;fill:#e0e0e0;fill-opacity:1" />
      <path
         sodipodi:nodetypes="cssccsscc"
         inkscape:connector-curvature="0"
         id="path3349-5"
         d="m 213.21189,932.36204 c 11.59604,0 25.33948,7.46664 27.05742,22.40002 L 248,1021.9621 c 1.28844,11.2 -7.73069,22.4001 -19.32672,22.4001 -36.72078,0 -144.950427,0 -185.536545,0 -11.596034,0 -25.339489,-7.4667 -27.057413,-22.4001 L 8.3486332,954.76206 C 7.0601882,943.56202 16.079322,932.362 27.675356,932.362 c 65.978778,0.009 123.161044,-0.0132 185.536534,4e-5 z"
         style="opacity:0.25;fill:#000000;fill-opacity:1" />
      <path
         sodipodi:nodetypes="csssccssccccccccccc"
         inkscape:connector-curvature="0"
         id="path3349-0-5"
         d="m 215.90995,928.37851 c 11.98772,0 26.19538,7.99879 27.97134,23.99638 l 7.99182,71.98931 c 1.33196,11.9982 -7.99182,23.9964 -19.97954,23.9964 l -35.96316,0 c -51.19098,-0.082 -106.112995,0.015 -155.840356,0 -11.98772,0 -26.195386,-7.9398 -27.971347,-23.9374 L 4.1268947,952.43347 c -1.331966,-11.99819 7.9918123,-24.05496 19.9795333,-24.05496 67.519974,-0.0369 128.701512,-10e-6 191.803522,0 z M 32.098241,936.3773 c -12.547697,-0.039 -18.013707,6.27898 -18.695689,15.94293 1.43525,21.873 4.628529,44.19844 6.707969,66.04487 0.998976,12.9981 10.384422,21.853 22.073089,21.9956 63.8389,-0.059 121.87515,-4e-4 181.25377,0.021 12.5477,-0.019 18.57369,-6.24 19.25567,-15.9039 -1.43525,-21.8735 -4.62853,-43.67553 -6.70797,-65.52187 -0.99898,-12.58126 -10.38442,-22.43605 -22.07309,-22.57863 -59.843,-10e-4 -128.428985,-0.0391 -181.813749,0 z"
         style="opacity:1;fill:#e0e0e0;fill-opacity:1;filter:url(#filter4175)" />
      <path
         inkscape:connector-curvature="0"
         id="path4867-9"
         d="m 128,948.36188 c -2.216,0 -4,1.784 -4,4 l 0,4.28125 a 32,32 0 0 0 -27.70898,27.71875 l -4.29102,0 c -2.21599,0 -4,1.78401 -4,4 0,2.21599 1.78401,4 4,4 l 4.28125,0 A 32,32 0 0 0 124,1020.0711 l 0,4.2911 c 0,2.2159 1.784,4 4,4 2.216,0 4,-1.7841 4,-4 l 0,-4.2814 a 32,32 0 0 0 27.70898,-27.71892 l 4.29102,0 c 2.216,0 4,-1.784 4,-4 0,-2.216 -1.784,-4 -4,-4 l -4.28125,0 A 32,32 0 0 0 132,956.6529 l 0,-4.29102 c 0,-2.216 -1.784,-4 -4,-4 z m -4,16.33984 0,3.66016 c 0,2.216 1.784,4 4,4 2.216,0 4,-1.784 4,-4 l 0,-3.63867 a 24,24 0 0 1 19.66016,19.63867 l -3.66016,0 c -2.216,0 -4,1.784 -4,4 0,2.216 1.784,4 4,4 l 3.63867,0 A 24,24 0 0 1 132,1012.0223 l 0,-3.6601 c 0,-2.216 -1.784,-4 -4,-4 -2.216,0 -4,1.784 -4,4 l 0,3.6386 a 24,24 0 0 1 -19.66016,-19.63892 l 3.66016,0 c 2.21599,0 4,-1.78401 4,-4 0,-2.21599 -1.78401,-4 -4,-4 l -3.63867,0 A 24,24 0 0 1 124,964.70172 Z m 4,19.66016 a 4,4 0 0 0 -4,4 4,4 0 0 0 4,4 4,4 0 0 0 4,-4 4,4 0 0 0 -4,-4 z"
         style="color:#000000;display:inline;overflow:visible;visibility:visible;fill:#e0e0e0;fill-opacity:1;fill-rule:evenodd;stroke:none;stroke-width:1px;stroke-linecap:butt;stroke-linejoin:miter;stroke-miterlimit:4;stroke-dasharray:none;stroke-dashoffset:0;stroke-opacity:1;marker:none;enable-background:accumulate;filter:url(#filter4179)" />
      <image
         sodipodi:absref="D:\downloads\Buttons\sources\..\..\..\Programs\Warsow_master\warsow\basewsw\gfx\hud\keys\act_crouch.tga"
         xlink:href="..\..\..\Programs\Warsow_master\warsow\basewsw\gfx\hud\keys\act_crouch.tga"
         y="922.2193"
         x="0.89285719"
         id="image4168"
         style="opacity:0;image-rendering:optimizeQuality"
         preserveAspectRatio="none"
         height="131.57146"
         width="126.57143" />
      <path
         sodipodi:nodetypes="csssccssccccccccccc"
         inkscape:connector-curvature="0"
         id="path3349-0"
         d="m 215.90995,928.37861 c 11.98772,0 26.19538,7.99879 27.97134,23.99638 l 7.99182,71.98921 c 1.33196,11.9982 -7.99182,23.9964 -19.97954,23.9964 l -35.96316,0 c -51.19098,-0.082 -106.112995,0.015 -155.840356,0 -11.98772,0 -26.195386,-7.9398 -27.971347,-23.9374 L 4.1268946,952.43357 C 2.794929,940.43538 12.118707,928.37861 24.106428,928.37861 c 67.519974,-0.0369 128.701512,-10e-6 191.803522,0 z M 32.098241,936.3774 c -12.547697,-0.039 -18.013707,6.27898 -18.695689,15.94293 1.43525,21.873 4.628529,44.19844 6.707969,66.04477 0.998976,12.9981 10.384422,21.853 22.073089,21.9956 63.8389,-0.059 121.87515,-4e-4 181.25377,0.021 12.5477,-0.019 18.57369,-6.24 19.25567,-15.9039 -1.43525,-21.8734 -4.62853,-43.67543 -6.70797,-65.52177 -0.99898,-12.58126 -10.38442,-22.43605 -22.07309,-22.57863 -59.843,-10e-4 -128.428985,-0.0391 -181.813749,0 z"
         style="opacity:1;fill:#e0e0e0;fill-opacity:1" />
      <path
         inkscape:connector-curvature="0"
         id="path4867"
         d="m 128,948.36199 c -2.216,0 -4,1.784 -4,4 l 0,4.28125 a 32,32 0 0 0 -27.70898,27.71875 l -4.29102,0 c -2.21599,0 -4,1.78401 -4,4 0,2.21599 1.78401,4 4,4 l 4.28125,0 A 32,32 0 0 0 124,1020.0711 l 0,4.2911 c 0,2.2159 1.784,4 4,4 2.216,0 4,-1.7841 4,-4 l 0,-4.2814 a 32,32 0 0 0 27.70898,-27.71881 l 4.29102,0 c 2.216,0 4,-1.784 4,-4 0,-2.216 -1.784,-4 -4,-4 l -4.28125,0 A 32,32 0 0 0 132,956.65301 l 0,-4.29102 c 0,-2.216 -1.784,-4 -4,-4 z m -4,16.33984 0,3.66016 c 0,2.216 1.784,4 4,4 2.216,0 4,-1.784 4,-4 l 0,-3.63867 a 24,24 0 0 1 19.66016,19.63867 l -3.66016,0 c -2.216,0 -4,1.784 -4,4 0,2.216 1.784,4 4,4 l 3.63867,0 A 24,24 0 0 1 132,1012.0223 l 0,-3.6601 c 0,-2.216 -1.784,-4 -4,-4 -2.216,0 -4,1.784 -4,4 l 0,3.6386 a 24,24 0 0 1 -19.66016,-19.63881 l 3.66016,0 c 2.21599,0 4,-1.78401 4,-4 0,-2.21599 -1.78401,-4 -4,-4 l -3.63867,0 A 24,24 0 0 1 124,964.70183 Z m 4,19.66016 a 4,4 0 0 0 -4,4 4,4 0 0 0 4,4 4,4 0 0 0 4,-4 4,4 0 0 0 -4,-4 z"
         style="color:#000000;display:inline;overflow:visible;visibility:visible;fill:#e0e0e0;fill-opacity:1;fill-rule:evenodd;stroke:none;stroke-width:1px;stroke-linecap:butt;stroke-linejoin:miter;stroke-miterlimit:4;stroke-dasharray:none;stroke-dashoffset:0;stroke-opacity:1;marker:none;enable-background:accumulate" />
    </g>
  </g>
</svg>
