<?xml version="1.0" encoding="UTF-8" standalone="no"?>
<!-- Created with Inkscape (http://www.inkscape.org/) -->

<svg
   xmlns:dc="http://purl.org/dc/elements/1.1/"
   xmlns:cc="http://creativecommons.org/ns#"
   xmlns:rdf="http://www.w3.org/1999/02/22-rdf-syntax-ns#"
   xmlns:svg="http://www.w3.org/2000/svg"
   xmlns="http://www.w3.org/2000/svg"
   xmlns:xlink="http://www.w3.org/1999/xlink"
   xmlns:sodipodi="http://sodipodi.sourceforge.net/DTD/sodipodi-0.dtd"
   xmlns:inkscape="http://www.inkscape.org/namespaces/inkscape"
   width="128"
   height="128"
   viewBox="0 0 128 128"
   id="svg4157"
   version="1.1"
   inkscape:version="0.91 r13725"
   sodipodi:docname="act_fire.svg"
   inkscape:export-filename="D:\downloads\Buttons\sources\act_fire.png"
   inkscape:export-xdpi="90"
   inkscape:export-ydpi="90">
  <defs
     id="defs4159">
    <filter
       style="color-interpolation-filters:sRGB;"
       inkscape:label="Blur"
       id="filter4175">
      <feGaussianBlur
         stdDeviation="1 1"
         result="blur"
         id="feGaussianBlur4177" />
    </filter>
    <filter
       style="color-interpolation-filters:sRGB;"
       inkscape:label="Blur"
       id="filter4179">
      <feGaussianBlur
         stdDeviation="1 1"
         result="blur"
         id="feGaussianBlur4181" />
    </filter>
  </defs>
  <sodipodi:namedview
     id="base"
     pagecolor="#7ebda3"
     bordercolor="#666666"
     borderopacity="1.0"
     inkscape:pageopacity="0"
     inkscape:pageshadow="2"
     inkscape:zoom="3.959798"
     inkscape:cx="77.81959"
     inkscape:cy="74.0602"
     inkscape:document-units="px"
     inkscape:current-layer="layer1"
     showgrid="true"
     units="px"
     inkscape:window-width="1600"
     inkscape:window-height="843"
     inkscape:window-x="-9"
     inkscape:window-y="23"
     inkscape:window-maximized="1"
     inkscape:object-nodes="true"
     inkscape:object-paths="true"
     inkscape:snap-intersection-paths="false"
     inkscape:snap-bbox="true"
     inkscape:snap-smooth-nodes="true"
     inkscape:snap-global="true">
    <inkscape:grid
       type="xygrid"
       id="grid3336"
       empspacing="2"
       dotted="false"
       color="#ffffff"
       opacity="1"
       empcolor="#0000e6"
       empopacity="0.25098039" />
  </sodipodi:namedview>
  <metadata
     id="metadata4162">
    <rdf:RDF>
      <cc:Work
         rdf:about="">
        <dc:format>image/svg+xml</dc:format>
        <dc:type
           rdf:resource="http://purl.org/dc/dcmitype/StillImage" />
        <dc:title />
      </cc:Work>
    </rdf:RDF>
  </metadata>
  <g
     inkscape:label="Layer 1"
     inkscape:groupmode="layer"
     id="layer1"
     transform="translate(0,-924.36216)">
    <g
       id="g4183">
      <path
         sodipodi:nodetypes="sssssssss"
         inkscape:connector-curvature="0"
         id="path3349"
         d="m 26.900964,1044.3622 c -11.171885,0 -19.8611235,-11.2 -18.6198079,-22.4 l 7.4479229,-67.20005 c 1.655094,-14.93333 14.895846,-22.39999 26.067731,-22.39999 l 59.58339,0 c 11.17188,0 19.86112,11.2 18.6198,22.39999 l -7.44792,67.20005 c -1.65509,14.9333 -14.895851,22.4 -26.067732,22.4 z"
         style="opacity:0.25;fill:#e0e0e0;fill-opacity:1" />
      <path
         sodipodi:nodetypes="sssssssss"
         inkscape:connector-curvature="0"
         id="path3349-5"
         d="m 26.663138,1044.3622 c -11.200424,0 -19.9118586,-11.2 -18.6673721,-22.4 l 7.4669481,-67.20005 c 1.659322,-14.93333 14.933899,-22.39999 26.134322,-22.39999 l 59.735594,0 c 11.20042,0 19.91186,11.2 18.66737,22.39999 l -7.46695,67.20005 c -1.65931,14.9333 -14.933901,22.4 -26.13432,22.4 z"
         style="opacity:0.25;fill:#000000;fill-opacity:1" />
      <path
         sodipodi:nodetypes="sssssssssccccccccc"
         inkscape:connector-curvature="0"
         id="path3349-0-2"
         d="m 40.050496,928.36215 c -11.974678,0 -26.166936,8.00041 -27.940916,24 l -7.9831191,72.00005 c -1.3304865,11.9997 8.0084161,24 19.9577971,24 l 63.814353,0 c 11.949379,0 26.217549,-8.0005 27.991519,-24 l 7.98312,-72.00005 c 1.33049,-11.99969 -7.98312,-24 -19.9578,-24 z m 57.877614,8 c 10.97679,0 15.95997,7.11405 16.57461,15.89057 -1.43606,21.87473 -4.61415,43.67745 -6.68846,65.52558 -1.90303,14.5839 -9.25514,21.1835 -19.865049,22.5839 l -55.881834,0 c -11.974678,0 -17.888633,-6.2213 -18.56844,-15.8867 1.43066,-21.8763 4.520976,-44.26371 6.593762,-66.11335 0.99789,-12 10.302296,-21.8574 21.953577,-22 z"
         style="opacity:1;fill:#e0e0e0;fill-opacity:1;filter:url(#filter4175)" />
      <path
         inkscape:connector-curvature="0"
         id="path4867-5"
         d="m 64,948.36216 c -2.216,0 -4,1.784 -4,4 l 0,4.28125 a 32,32 0 0 0 -27.70898,27.71875 l -4.29102,0 c -2.21599,0 -4,1.78401 -4,4 0,2.21599 1.78401,4 4,4 l 4.28125,0 A 32,32 0 0 0 60,1020.0712 l 0,4.2911 c 0,2.216 1.784,4 4,4 2.216,0 4,-1.784 4,-4 l 0,-4.2813 a 32,32 0 0 0 27.70898,-27.71884 l 4.29102,0 c 2.216,0 4,-1.784 4,-4 0,-2.216 -1.784,-4 -4,-4 l -4.28125,0 A 32,32 0 0 0 68,956.65318 l 0,-4.29102 c 0,-2.216 -1.784,-4 -4,-4 z m -4,16.33984 0,3.66016 c 0,2.216 1.784,4 4,4 2.216,0 4,-1.784 4,-4 l 0,-3.63867 a 24,24 0 0 1 19.66016,19.63867 l -3.66016,0 c -2.216,0 -4,1.784 -4,4 0,2.216 1.784,4 4,4 l 3.63867,0 A 24,24 0 0 1 68,1012.0224 l 0,-3.6601 c 0,-2.216 -1.784,-4 -4,-4 -2.216,0 -4,1.784 -4,4 l 0,3.6386 A 24,24 0 0 1 40.33984,992.36216 l 3.66016,0 c 2.21599,0 4,-1.78401 4,-4 0,-2.21599 -1.78401,-4 -4,-4 l -3.63867,0 A 24,24 0 0 1 60,964.702 Z m 4,19.66016 a 4,4 0 0 0 -4,4 4,4 0 0 0 4,4 4,4 0 0 0 4,-4 4,4 0 0 0 -4,-4 z"
         style="color:#000000;display:inline;overflow:visible;visibility:visible;fill:#e0e0e0;fill-opacity:1;fill-rule:evenodd;stroke:none;stroke-width:1px;stroke-linecap:butt;stroke-linejoin:miter;stroke-miterlimit:4;stroke-dasharray:none;stroke-dashoffset:0;stroke-opacity:1;marker:none;enable-background:accumulate;filter:url(#filter4179)" />
      <image
         sodipodi:absref="D:\downloads\Buttons\sources\..\..\..\Programs\Warsow_master\warsow\basewsw\gfx\hud\keys\act_crouch.tga"
         xlink:href="..\..\..\Programs\Warsow_master\warsow\basewsw\gfx\hud\keys\act_crouch.tga"
         y="922.2193"
         x="0.89285719"
         id="image4168"
         style="opacity:0;image-rendering:optimizeQuality"
         preserveAspectRatio="none"
         height="131.57146"
         width="126.57143" />
      <path
         sodipodi:nodetypes="sssssssssccccccccc"
         inkscape:connector-curvature="0"
         id="path3349-0"
         d="m 40.050496,928.36216 c -11.974678,0 -26.166936,8.00041 -27.940916,24 l -7.9831191,72.00004 c -1.3304865,11.9997 8.0084161,24 19.9577971,24 l 63.814353,0 c 11.949381,0 26.217549,-8.0005 27.991519,-24 l 7.98312,-72.00004 c 1.33049,-11.99969 -7.98312,-24 -19.9578,-24 z m 57.877614,8 c 10.97679,0 15.95997,7.11405 16.57461,15.89057 -1.43606,21.87473 -4.61415,43.67745 -6.68846,65.52557 -1.90303,14.5839 -9.255145,21.1835 -19.865049,22.5839 l -55.881834,0 c -11.974678,0 -17.888633,-6.2213 -18.56844,-15.8867 1.43066,-21.8763 4.520976,-44.2637 6.593762,-66.11334 0.99789,-12 10.302296,-21.8574 21.953577,-22 z"
         style="opacity:1;fill:#e0e0e0;fill-opacity:1" />
      <path
         inkscape:connector-curvature="0"
         id="path4867"
         d="m 64,948.36216 c -2.216,0 -4,1.784 -4,4 l 0,4.28125 a 32,32 0 0 0 -27.70898,27.71875 l -4.29102,0 c -2.21599,0 -4,1.78401 -4,4 0,2.21599 1.78401,4 4,4 l 4.28125,0 A 32,32 0 0 0 60,1020.0712 l 0,4.2911 c 0,2.216 1.784,4 4,4 2.216,0 4,-1.784 4,-4 l 0,-4.2813 a 32,32 0 0 0 27.70898,-27.71884 l 4.29102,0 c 2.216,0 4,-1.784 4,-4 0,-2.216 -1.784,-4 -4,-4 l -4.28125,0 A 32,32 0 0 0 68,956.65318 l 0,-4.29102 c 0,-2.216 -1.784,-4 -4,-4 z m -4,16.33984 0,3.66016 c 0,2.216 1.784,4 4,4 2.216,0 4,-1.784 4,-4 l 0,-3.63867 a 24,24 0 0 1 19.66016,19.63867 l -3.66016,0 c -2.216,0 -4,1.784 -4,4 0,2.216 1.784,4 4,4 l 3.63867,0 A 24,24 0 0 1 68,1012.0224 l 0,-3.6601 c 0,-2.216 -1.784,-4 -4,-4 -2.216,0 -4,1.784 -4,4 l 0,3.6386 A 24,24 0 0 1 40.33984,992.36216 l 3.66016,0 c 2.21599,0 4,-1.78401 4,-4 0,-2.21599 -1.78401,-4 -4,-4 l -3.63867,0 A 24,24 0 0 1 60,964.702 Z m 4,19.66016 a 4,4 0 0 0 -4,4 4,4 0 0 0 4,4 4,4 0 0 0 4,-4 4,4 0 0 0 -4,-4 z"
         style="color:#000000;display:inline;overflow:visible;visibility:visible;fill:#e0e0e0;fill-opacity:1;fill-rule:evenodd;stroke:none;stroke-width:1px;stroke-linecap:butt;stroke-linejoin:miter;stroke-miterlimit:4;stroke-dasharray:none;stroke-dashoffset:0;stroke-opacity:1;marker:none;enable-background:accumulate" />
    </g>
  </g>
</svg>
