<?xml version="1.0" encoding="UTF-8" standalone="no"?>
<!-- Created with Inkscape (http://www.inkscape.org/) -->

<svg
   xmlns:dc="http://purl.org/dc/elements/1.1/"
   xmlns:cc="http://creativecommons.org/ns#"
   xmlns:rdf="http://www.w3.org/1999/02/22-rdf-syntax-ns#"
   xmlns:svg="http://www.w3.org/2000/svg"
   xmlns="http://www.w3.org/2000/svg"
   xmlns:xlink="http://www.w3.org/1999/xlink"
   xmlns:sodipodi="http://sodipodi.sourceforge.net/DTD/sodipodi-0.dtd"
   xmlns:inkscape="http://www.inkscape.org/namespaces/inkscape"
   width="128"
   height="128"
   viewBox="0 0 128 128"
   id="svg4157"
   version="1.1"
   inkscape:version="0.91pre3 r13670"
   sodipodi:docname="touch_movedir.svg"
   inkscape:export-filename="D:\downloads\Buttons\sources\key_right.png"
   inkscape:export-xdpi="90"
   inkscape:export-ydpi="90">
  <defs
     id="defs4159">
    <filter
       style="color-interpolation-filters:sRGB;"
       inkscape:label="Blur"
       id="filter4175">
      <feGaussianBlur
         stdDeviation="1 1"
         result="blur"
         id="feGaussianBlur4177" />
    </filter>
    <filter
       style="color-interpolation-filters:sRGB;"
       inkscape:label="Blur"
       id="filter4179">
      <feGaussianBlur
         stdDeviation="1 1"
         result="blur"
         id="feGaussianBlur4181" />
    </filter>
    <filter
       inkscape:collect="always"
       style="color-interpolation-filters:sRGB"
       id="filter4736"
       x="-0.0204"
       width="1.0408"
       y="-0.0204"
       height="1.0408">
      <feGaussianBlur
         inkscape:collect="always"
         stdDeviation="1.02"
         id="feGaussianBlur4738" />
    </filter>
  </defs>
  <sodipodi:namedview
     id="base"
     pagecolor="#7ebda3"
     bordercolor="#666666"
     borderopacity="1.0"
     inkscape:pageopacity="0"
     inkscape:pageshadow="2"
     inkscape:zoom="2.828427"
     inkscape:cx="65.297686"
     inkscape:cy="25.500802"
     inkscape:document-units="px"
     inkscape:current-layer="layer1"
     showgrid="true"
     units="px"
     inkscape:window-width="1920"
     inkscape:window-height="1017"
     inkscape:window-x="-8"
     inkscape:window-y="-8"
     inkscape:window-maximized="1"
     inkscape:object-nodes="true"
     inkscape:object-paths="true"
     inkscape:snap-intersection-paths="false"
     inkscape:snap-bbox="true"
     inkscape:snap-smooth-nodes="true"
     inkscape:snap-global="true">
    <inkscape:grid
       type="xygrid"
       id="grid3336"
       empspacing="2"
       dotted="false"
       color="#ffffff"
       opacity="1"
       empcolor="#0000e6"
       empopacity="0.25098039" />
  </sodipodi:namedview>
  <metadata
     id="metadata4162">
    <rdf:RDF>
      <cc:Work
         rdf:about="">
        <dc:format>image/svg+xml</dc:format>
        <dc:type
           rdf:resource="http://purl.org/dc/dcmitype/StillImage" />
        <dc:title></dc:title>
      </cc:Work>
    </rdf:RDF>
  </metadata>
  <g
     inkscape:label="Layer 1"
     inkscape:groupmode="layer"
     id="layer1"
     transform="translate(0,-924.36216)">
    <circle
       style="opacity:0.25;fill:#e0e0e0;fill-opacity:1;stroke:none;stroke-width:1;stroke-linecap:butt;stroke-linejoin:round;stroke-miterlimit:4;stroke-dasharray:none;stroke-dashoffset:0;stroke-opacity:1"
       id="path4726"
       cx="64"
       cy="988.36218"
       r="56" />
    <circle
       r="56"
       cy="988.36218"
       cx="64"
       id="circle4728"
       style="opacity:0.25;fill:#000000;fill-opacity:1;stroke:none;stroke-width:1;stroke-linecap:butt;stroke-linejoin:round;stroke-miterlimit:4;stroke-dasharray:none;stroke-dashoffset:0;stroke-opacity:1" />
    <path
       style="opacity:1;fill:#e0e0e0;fill-opacity:1;filter:url(#filter4179)"
       d="m 56,976.36216 0,-16 c 24.00004,14 24.00004,14 48.00004,28 -24,14.00004 -24,14.00004 -48.00004,28.00004 l 0,-16 -32.00004,0 0,-12.00004 0,-12 z"
       id="path4162-9-5"
       inkscape:connector-curvature="0"
       sodipodi:nodetypes="ccccccccc" />
    <image
       sodipodi:absref="J:\Warsow\warsow\sdk\gfx\hud_1_x\keystate buttons\..\..\..\Programs\Warsow_master\warsow\basewsw\gfx\hud\keys\act_crouch.tga"
       xlink:href="..\..\..\Programs\Warsow_master\warsow\basewsw\gfx\hud\keys\act_crouch.tga"
       width="126.57143"
       height="131.57146"
       preserveAspectRatio="none"
       style="opacity:0;image-rendering:optimizeQuality"
       id="image4168"
       x="0.89285719"
       y="922.2193" />
    <path
       style="opacity:1;fill:#e0e0e0;fill-opacity:1"
       d="m 56,976.36216 0,-16 c 24.00004,14 24.00004,14 48.00004,28 -24,14.00004 -24,14.00004 -48.00004,28.00004 l 0,-16 -32.00004,0 0,-12.00004 0,-12 z"
       id="path4162-9"
       inkscape:connector-curvature="0"
       sodipodi:nodetypes="ccccccccc" />
    <path
       id="path4730"
       transform="translate(0,924.36216)"
       d="M 64 4 A 60 60 0 0 0 4 64 A 60 60 0 0 0 64 124 A 60 60 0 0 0 124 64 A 60 60 0 0 0 64 4 z M 64 12 A 52 52 0 0 1 116 64 A 52 52 0 0 1 64 116 A 52 52 0 0 1 12 64 A 52 52 0 0 1 64 12 z "
       style="opacity:1;fill:#e0e0e0;fill-opacity:1;stroke:none;stroke-width:1;stroke-linecap:butt;stroke-linejoin:round;stroke-miterlimit:4;stroke-dasharray:none;stroke-dashoffset:0;stroke-opacity:1;filter:url(#filter4736)" />
    <path
       style="opacity:1;fill:#e0e0e0;fill-opacity:1;stroke:none;stroke-width:1;stroke-linecap:butt;stroke-linejoin:round;stroke-miterlimit:4;stroke-dasharray:none;stroke-dashoffset:0;stroke-opacity:1"
       d="M 64 4 A 60 60 0 0 0 4 64 A 60 60 0 0 0 64 124 A 60 60 0 0 0 124 64 A 60 60 0 0 0 64 4 z M 64 12 A 52 52 0 0 1 116 64 A 52 52 0 0 1 64 116 A 52 52 0 0 1 12 64 A 52 52 0 0 1 64 12 z "
       transform="translate(0,924.36216)"
       id="path4719" />
  </g>
</svg>
