<?xml version="1.0" encoding="UTF-8" standalone="no"?>
<!-- Created with Inkscape (http://www.inkscape.org/) -->

<svg
   xmlns:dc="http://purl.org/dc/elements/1.1/"
   xmlns:cc="http://creativecommons.org/ns#"
   xmlns:rdf="http://www.w3.org/1999/02/22-rdf-syntax-ns#"
   xmlns:svg="http://www.w3.org/2000/svg"
   xmlns="http://www.w3.org/2000/svg"
   xmlns:sodipodi="http://sodipodi.sourceforge.net/DTD/sodipodi-0.dtd"
   xmlns:inkscape="http://www.inkscape.org/namespaces/inkscape"
   width="128"
   height="128"
   viewBox="0 0 128 128"
   id="svg4157"
   version="1.1"
   inkscape:version="0.48.4 r9939"
   sodipodi:docname="bulletsammo.svg"
   inkscape:export-filename="/home/adem/electroammo.png"
   inkscape:export-xdpi="180"
   inkscape:export-ydpi="180"
   shape-rendering="crispEdges">
  <defs
     id="defs4159">
    <filter
       style="color-interpolation-filters:sRGB;"
       inkscape:label="Blur"
       id="filter4175">
      <feGaussianBlur
         stdDeviation="1 1"
         result="blur"
         id="feGaussianBlur4177" />
    </filter>
    <filter
       style="color-interpolation-filters:sRGB;"
       inkscape:label="Blur"
       id="filter4179">
      <feGaussianBlur
         stdDeviation="1 1"
         result="blur"
         id="feGaussianBlur4181" />
    </filter>
    <clipPath
       clipPathUnits="userSpaceOnUse"
       id="clipPath3015">
      <path
         inkscape:export-ydpi="90"
         inkscape:export-xdpi="90"
         inkscape:export-filename="/home/style/allicons.png"
         sodipodi:nodetypes="ccccc"
         inkscape:connector-curvature="0"
         id="path3017"
         d="M -255.00959,727.77687 -87.516134,784.39038 -215.83828,853.4991 -493.77329,784.37267 Z"
         style="fill:#00d3e5;fill-opacity:1;stroke:none" />
    </clipPath>
  </defs>
  <sodipodi:namedview
     id="base"
     pagecolor="#c9c9c9"
     bordercolor="#666666"
     borderopacity="1.0"
     inkscape:pageopacity="0"
     inkscape:pageshadow="2"
     inkscape:zoom="4"
     inkscape:cx="67.830045"
     inkscape:cy="74.438266"
     inkscape:document-units="px"
     inkscape:current-layer="layer1"
     showgrid="true"
     units="px"
     inkscape:window-width="1177"
     inkscape:window-height="822"
     inkscape:window-x="409"
     inkscape:window-y="41"
     inkscape:window-maximized="0"
     inkscape:object-nodes="true"
     inkscape:object-paths="true"
     inkscape:snap-intersection-paths="false"
     inkscape:snap-bbox="true"
     inkscape:snap-smooth-nodes="true"
     inkscape:snap-global="true">
    <inkscape:grid
       type="xygrid"
       id="grid3336"
       empspacing="2"
       dotted="false"
       color="#ffffff"
       opacity="1"
       empcolor="#0000e6"
       empopacity="0.25098039" />
  </sodipodi:namedview>
  <metadata
     id="metadata4162">
    <rdf:RDF>
      <cc:Work
         rdf:about="">
        <dc:format>image/svg+xml</dc:format>
        <dc:type
           rdf:resource="http://purl.org/dc/dcmitype/StillImage" />
        <dc:title></dc:title>
      </cc:Work>
    </rdf:RDF>
  </metadata>
  <g
     inkscape:label="Layer 1"
     inkscape:groupmode="layer"
     id="layer1"
     transform="translate(0,-924.36216)">
    <path
       inkscape:connector-curvature="0"
       id="path4212"
       d="m 23.253634,934.3621 81.510716,0 c 7.34108,0 13.23565,5.91259 13.23565,13.25362 l 0,81.51078 c 0,7.3411 -5.89457,13.2357 -13.23565,13.2357 l -81.510716,0 C 15.912599,1042.3622 10,1036.4676 10,1029.1265 l 0,-81.51078 c 0,-7.34103 5.912599,-13.25362 13.253634,-13.25362 z"
       style="opacity:0.25000000000000000;fill:#00eaff;fill-opacity:1;fill-rule:nonzero;stroke:none" />
    <path
       inkscape:connector-curvature="0"
       id="path4225"
       d="m 23.253634,934.36192 81.510716,0 c 7.34108,0 13.23565,5.91259 13.23565,13.25362 l 0,81.51096 c 0,7.3411 -5.89457,13.2357 -13.23565,13.2357 l -81.510716,0 C 15.912595,1042.3622 10,1036.4676 10,1029.1265 l 0,-81.51096 c 0,-7.34103 5.912595,-13.25362 13.253634,-13.25362 z"
       style="opacity:0.25;fill:#000000;fill-opacity:1;fill-rule:nonzero;stroke:none" />
    <path
       inkscape:connector-curvature="0"
       id="path4238"
       d="m 24,932.36212 c -7.612925,0 -16,8.38708 -16,16 l 0,80.00008 c 0,7.613 8.387075,16 16,16 l 80,0 c 7.61298,0 16,-8.387 16,-16 l 0,-80.00008 c 0,-7.61292 -8.38702,-16 -16,-16 z m 4,8 72,0 c 6.5254,0 12,5.47465 12,12 l 0,72.00008 c 0,6.5254 -5.4746,12 -12,12 l -72,0 c -6.525354,0 -12,-5.4747 -12,-12 l 0,-72.00008 c 0,-6.52535 5.474646,-12 12,-12 z"
       style="fill:#00eaff;fill-opacity:1;fill-rule:nonzero;stroke:none"
       sodipodi:nodetypes="ssssssssssssssssss" />
    <g
       transform="translate(83.487723,12.23426)"
       id="g3773">
      <path
         inkscape:connector-curvature="0"
         id="rect6556-3-8-8-6-9"
         d="m -13.202009,943.1278 c -7.803312,0 -14.498185,6.67623 -17.365513,17.41615 -0.490372,-0.0857 -0.987638,-0.13044 -1.49163,-0.13044 -7.208406,0 -13.143736,8.99402 -14.018555,20.61273 -4.518224,1.04705 -7.981443,6.88815 -7.981445,13.95877 -3e-6,1.31376 0.127983,2.58041 0.351424,3.78739 l -9.779995,10.3555 11.515625,-5.2775 c 1.7283,3.2158 4.373308,5.2775 7.341518,5.2775 2.507974,0 4.780771,-1.4779 6.469866,-3.8734 1.84724,1.4746 3.916664,2.302 6.101562,2.302 3.898696,0 7.428868,-2.6301 9.987166,-6.8828 2.644337,2.3837 5.662559,3.7399 8.869977,3.7399 9.4985407,0 17.3534317,-11.52574 18.6622493,-26.88625 l 6.4806077,-2.97098 12.571429,-31.42857 -25.37765083,6.92103 C -4.1726421,945.65573 -8.4831085,943.1278 -13.202009,943.1278 z m 0,6.28571 c 2.425937,0 4.7223389,0.75827 6.773717,2.15304 l -3.63086,0.98982 -12.79241,13.54436 c -1.269207,-1.81688 -2.731687,-3.2681 -4.332171,-4.24777 2.606424,-7.65295 7.886958,-12.43945 13.981724,-12.43945 z m -18.857143,15.71429 c 0.182751,0 0.363734,0.008 0.543248,0.0215 -0.352504,2.34282 -0.543248,4.8279 -0.543248,7.44283 -1e-6,1.06659 0.03133,2.1201 0.09208,3.15974 l -7.244839,7.67148 c -1.090496,-1.15228 -2.349041,-1.96432 -3.712193,-2.33875 0.758884,-8.93885 4.980758,-15.95675 10.864955,-15.95675 z m 3.753628,1.04352 c 1.069883,0.62473 2.039304,1.52456 2.904994,2.62877 l -3.508091,3.71525 c 0.02586,-2.23428 0.233468,-4.35626 0.603097,-6.34402 z m 30.3482137,12.92132 c -1.70662245,10.92743 -7.8836532,19.03525 -15.2446987,19.03525 -2.367953,0 -4.611092,-0.84462 -6.62486,-2.34648 0.788285,-2.26509 1.35738,-4.76245 1.657366,-7.42436 l 20.2121927,-9.26441 z m -48.2385607,5.10717 c 0.0114,2.10311 0.195838,4.13368 0.517161,6.07096 l -6.637138,7.0269 c -0.111392,-0.74397 -0.171877,-1.51681 -0.171875,-2.31266 0,-5.40494 2.702396,-9.78548 6.291852,-10.7852 z m 3.142857,0 c 0.748466,0.21019 1.455495,0.57136 2.110073,1.05426 l -1.94587,2.061 c -0.0996,-1.01554 -0.157578,-2.05477 -0.164203,-3.11526 z m 21.459822,5.72419 c -0.217747,1.18662 -0.501767,2.32054 -0.844029,3.39295 -0.58838,-0.68548 -1.145425,-1.4355 -1.668108,-2.24208 l 2.512137,-1.15087 z m -6.192103,2.83745 c 0.946794,1.94682 2.02823,3.69994 3.219586,5.2206 -1.903425,2.99945 -4.477473,4.85705 -7.493443,4.85705 -1.526485,0 -2.939867,-0.477 -4.212472,-1.3321 0.562551,-1.6181 0.921196,-3.41825 1.028181,-5.32803 l 7.458148,-3.41752 z m -9.117048,4.17862 c -0.150527,1.19708 -0.430045,2.32449 -0.828684,3.34703 -0.627592,-0.62553 -1.207062,-1.35428 -1.737165,-2.17149 l 2.565849,-1.17554 z m -5.745536,2.6334 c 0.831913,1.56793 1.779626,2.96203 2.832868,4.11583 -1.330783,1.4373 -2.999059,2.2927 -4.815569,2.2927 -2.103681,0 -4.009898,-1.1425 -5.420201,-3.0155 l 7.402902,-3.39303 z"
         style="fill:#00e8ff;fill-opacity:1;stroke:none" />
      <path
         inkscape:connector-curvature="0"
         id="rect6556-3-8-8-6-9-7"
         d="m 24.512277,943.1278 -88,66.0001 11.515625,-5.2775 c 1.7283,3.2158 4.373308,5.2775 7.341518,5.2775 2.507974,0 4.780771,-1.4779 6.469866,-3.8734 1.84724,1.4745 3.916664,2.302 6.101562,2.302 3.898696,0 7.428868,-2.63 9.987166,-6.8828 2.644337,2.3838 5.662559,3.7399 8.869977,3.7399 9.4985407,0 17.3534317,-11.52574 18.6622493,-26.88625 L 11.940848,974.55637 24.512277,943.1278 z M 2.0426897,979.09264 c -1.70662245,10.92743 -7.8836532,19.03525 -15.2446987,19.03525 -2.367953,0 -4.611092,-0.84471 -6.62486,-2.34639 0.788285,-2.26518 1.35738,-4.76254 1.657366,-7.42445 l 20.2121927,-9.26441 z m -23.6358817,10.83429 c -0.217747,1.18681 -0.501767,2.32073 -0.844029,3.39304 -0.58838,-0.68548 -1.145425,-1.4355 -1.668108,-2.24207 l 2.512137,-1.15097 z m -6.192103,2.83754 c 0.946794,1.94691 2.02823,3.70004 3.219586,5.2207 -1.903425,2.99933 -4.477473,4.85693 -7.493443,4.85693 -1.526485,0 -2.939867,-0.477 -4.212472,-1.332 0.562551,-1.61827 0.921196,-3.41833 1.028181,-5.32811 l 7.458148,-3.41752 z m -9.117048,4.17872 c -0.150528,1.19698 -0.430045,2.32439 -0.828684,3.34691 -0.627592,-0.62551 -1.207062,-1.35435 -1.737165,-2.17147 l 2.565849,-1.17544 z m -5.745536,2.63331 c 0.831913,1.568 1.779626,2.962 2.832868,4.1158 -1.330783,1.4373 -2.999059,2.2927 -4.815569,2.2927 -2.103681,0 -4.009897,-1.1424 -5.420201,-3.0154 l 7.402902,-3.3931 z"
         style="opacity:0.2;fill:#000000;fill-opacity:1;stroke:none" />
    </g>
  </g>
</svg>
