<?xml version="1.0" encoding="UTF-8" standalone="no"?>
<!-- Created with Inkscape (http://www.inkscape.org/) -->

<svg
   xmlns:dc="http://purl.org/dc/elements/1.1/"
   xmlns:cc="http://creativecommons.org/ns#"
   xmlns:rdf="http://www.w3.org/1999/02/22-rdf-syntax-ns#"
   xmlns:svg="http://www.w3.org/2000/svg"
   xmlns="http://www.w3.org/2000/svg"
   xmlns:sodipodi="http://sodipodi.sourceforge.net/DTD/sodipodi-0.dtd"
   xmlns:inkscape="http://www.inkscape.org/namespaces/inkscape"
   width="128"
   height="128"
   viewBox="0 0 128 128"
   id="svg4157"
   version="1.1"
   inkscape:version="0.91 r13725"
   sodipodi:docname="25.svg"
   inkscape:export-filename="D:\downloads\icons\health\25.png"
   inkscape:export-xdpi="180"
   inkscape:export-ydpi="180">
  <defs
     id="defs4159">
    <filter
       style="color-interpolation-filters:sRGB;"
       inkscape:label="Blur"
       id="filter4175">
      <feGaussianBlur
         stdDeviation="1 1"
         result="blur"
         id="feGaussianBlur4177" />
    </filter>
    <filter
       style="color-interpolation-filters:sRGB;"
       inkscape:label="Blur"
       id="filter4179">
      <feGaussianBlur
         stdDeviation="1 1"
         result="blur"
         id="feGaussianBlur4181" />
    </filter>
  </defs>
  <sodipodi:namedview
     id="base"
     pagecolor="#90aba0"
     bordercolor="#666666"
     borderopacity="1.0"
     inkscape:pageopacity="0"
     inkscape:pageshadow="2"
     inkscape:zoom="2.8284271"
     inkscape:cx="43.184376"
     inkscape:cy="71.552682"
     inkscape:document-units="px"
     inkscape:current-layer="layer1"
     showgrid="true"
     units="px"
     inkscape:window-width="1600"
     inkscape:window-height="843"
     inkscape:window-x="-9"
     inkscape:window-y="23"
     inkscape:window-maximized="1"
     inkscape:object-nodes="true"
     inkscape:object-paths="true"
     inkscape:snap-intersection-paths="false"
     inkscape:snap-bbox="true"
     inkscape:snap-smooth-nodes="true"
     inkscape:snap-global="true">
    <inkscape:grid
       type="xygrid"
       id="grid3336"
       empspacing="2"
       dotted="false"
       color="#ffffff"
       opacity="1"
       empcolor="#0000e6"
       empopacity="0.25098039" />
  </sodipodi:namedview>
  <metadata
     id="metadata4162">
    <rdf:RDF>
      <cc:Work
         rdf:about="">
        <dc:format>image/svg+xml</dc:format>
        <dc:type
           rdf:resource="http://purl.org/dc/dcmitype/StillImage" />
        <dc:title></dc:title>
      </cc:Work>
    </rdf:RDF>
  </metadata>
  <g
     inkscape:label="Layer 1"
     inkscape:groupmode="layer"
     id="layer1"
     transform="translate(0,-924.36216)">
    <ellipse
       style="opacity:0.25;fill:#ffef0c;fill-opacity:1;stroke:none"
       id="path4591-5-0-4-5-4-2"
       cx="64"
       cy="988.36218"
       rx="56"
       ry="56.000023" />
    <ellipse
       style="opacity:0.25;fill:#000000;fill-opacity:1;stroke:none"
       id="path4591-5-0-4-5-4-7-7"
       cx="64"
       cy="988.36218"
       rx="56"
       ry="56.000023" />
    <path
       style="opacity:1;fill:#ffef0c;fill-opacity:1;stroke:none"
       d="m 63.999999,928.36216 c -33.137086,0 -60.0000012,26.86291 -59.999999,59.99999 -3.53e-5,33.13715 26.86289,60.00005 59.999999,60.00005 33.13711,0 60.000041,-26.8629 60.000001,-60.00005 0,-33.13708 -26.862914,-59.99999 -60.000001,-59.99999 z m 10e-7,8 c 28.403216,0 52,23.59679 52,52 0,28.40324 -23.596788,52.00004 -52,52.00004 -28.403212,0 -51.999995,-23.5968 -52,-52.00004 -10e-7,-28.40321 23.596784,-52 52,-52 z"
       id="path4591-5-0-4-5-4"
       inkscape:connector-curvature="0"
       sodipodi:nodetypes="ssssssssss" />
    <path
       inkscape:connector-curvature="0"
       style="opacity:0.15;fill:#000000;fill-opacity:1;stroke:none"
       d="m 56,962.36216 0,20 -20,0 0,20.00004 20,0 0,20 20,0 0,-20 20,0 0,-20.00004 -20,0 0,-20 z"
       id="rect4187-0-3-3-1"
       sodipodi:nodetypes="ccccccccccccc" />
    <path
       style="fill:#ffef0c;fill-opacity:1;stroke:none"
       d="m 54,958.36216 0,20 -20,0 0,20 20,0 0,20.00004 20,0 0,-20.00004 20,0 0,-20 -20,0 0,-20 z"
       id="rect4187-0-3-3"
       inkscape:connector-curvature="0"
       sodipodi:nodetypes="ccccccccccccc" />
  </g>
</svg>
