<?xml version="1.0" encoding="UTF-8" standalone="no"?>
<svg
   xmlns:dc="http://purl.org/dc/elements/1.1/"
   xmlns:cc="http://creativecommons.org/ns#"
   xmlns:rdf="http://www.w3.org/1999/02/22-rdf-syntax-ns#"
   xmlns:svg="http://www.w3.org/2000/svg"
   xmlns="http://www.w3.org/2000/svg"
   width="128"
   height="128"
   viewBox="0 0 128 128"
   id="svg4157"
   version="1.1">
  <defs
     id="defs4159">
    <filter
       style="color-interpolation-filters:sRGB;"
       id="filter4175">
      <feGaussianBlur
         stdDeviation="1 1"
         result="blur"
         id="feGaussianBlur4177" />
    </filter>
    <filter
       style="color-interpolation-filters:sRGB;"
       id="filter4179">
      <feGaussianBlur
         stdDeviation="1 1"
         result="blur"
         id="feGaussianBlur4181" />
    </filter>
  </defs>
  <metadata
     id="metadata4162">
    <rdf:RDF>
      <cc:Work
         rdf:about="">
        <dc:format>image/svg+xml</dc:format>
        <dc:type
           rdf:resource="http://purl.org/dc/dcmitype/StillImage" />
        <dc:title></dc:title>
      </cc:Work>
    </rdf:RDF>
  </metadata>
  <ellipse
     ry="56.000023"
     rx="56"
     cy="64.000023"
     cx="64"
     id="path4591-5-0-4-5-4-2"
     style="opacity:0.25;fill:#01c6ff;fill-opacity:1;stroke:none" />
  <ellipse
     ry="56.000023"
     rx="56"
     cy="64.000023"
     cx="64"
     id="path4591-5-0-4-5-4-7-7"
     style="opacity:0.25;fill:#000000;fill-opacity:1;stroke:none" />
  <path
     id="path4591-5-0-4-5-4"
     d="M 63.999999,4 C 30.862913,4 3.9999978,30.86291 4,63.99999 c -3.53e-5,33.13715 26.86289,60.00005 59.999999,60.00005 33.13711,0 60.000041,-26.8629 60.000001,-60.00005 C 124,30.86291 97.137086,4 63.999999,4 Z M 64,12 c 28.403216,0 52,23.59679 52,52 0,28.40324 -23.596788,52.00004 -52,52.00004 -28.403212,0 -51.999995,-23.5968 -52,-52.00004 -10e-7,-28.40321 23.596784,-52 52,-52 z"
     style="opacity:1;fill:#01c6ff;fill-opacity:1;stroke:none" />
  <path
     id="path3351-9"
     d="m 66,96.00004 -30,-10 0,14 30,10 30,-10 0,-14 z"
     style="opacity:0.15;fill:#000000;fill-opacity:1;fill-rule:evenodd;stroke:none;stroke-width:1px;stroke-linecap:butt;stroke-linejoin:miter;stroke-opacity:1" />
  <path
     id="path3351"
     d="m 64,92.00004 -30,-10 0,14 30,10 30,-10 0,-14 z"
     style="fill:#01c6ff;fill-opacity:1;fill-rule:evenodd;stroke:none;stroke-width:1px;stroke-linecap:butt;stroke-linejoin:miter;stroke-opacity:1" />
  <path
     id="path4734"
     d="M 57.703125 23.988281 A 2.109375 2.109375 0 0 0 55.59375 26.097656 A 2.109375 2.109375 0 0 0 55.761719 26.916016 L 42.041016 82.253906 A 1.4064544 1.4064544 0 1 0 44.771484 82.931641 L 51.169922 57.126953 C 53.407661 56.928811 57.408198 56.629455 59.8125 56.8125 C 67.756728 57.417316 76.092927 65.00041 83.25 61.5 C 84.505435 60.885988 85.125 57.75 85.125 57.75 L 90.28125 35.71875 C 90.28125 35.71875 88.669942 36.487934 86.808594 37.146484 L 87 36 L 85 37 L 84.6875 37.783203 C 83.999033 37.947536 83.335023 38.065642 82.78125 38.0625 C 76.209562 38.02522 70.522097 32.997041 64.03125 31.96875 C 62.214562 31.680948 59.176033 31.791363 57.427734 31.886719 L 58.367188 28.097656 A 2.109375 2.109375 0 0 0 59.8125 26.097656 A 2.109375 2.109375 0 0 0 57.703125 23.988281 z M 85.304688 41.785156 L 83 51 L 81 58 L 79 59 L 74 59 L 74 59.435547 C 69.515163 57.924345 64.892335 54.883068 60.28125 54.46875 C 57.475716 54.216666 51.84375 54.9375 51.84375 54.9375 C 51.84375 54.9375 55.974814 49.741471 58.875 48.375 C 65.432012 45.285557 73.831751 48.546313 80.4375 45.5625 C 81.945419 44.881374 83.810961 43.250517 85.304688 41.785156 z "
     style="color:#000000;font-style:normal;font-variant:normal;font-weight:normal;font-stretch:normal;font-size:medium;line-height:normal;font-family:sans-serif;text-indent:0;text-align:start;text-decoration:none;text-decoration-line:none;text-decoration-style:solid;text-decoration-color:#000000;letter-spacing:normal;word-spacing:normal;text-transform:none;direction:ltr;block-progression:tb;writing-mode:lr-tb;baseline-shift:baseline;text-anchor:start;white-space:normal;clip-rule:nonzero;display:inline;overflow:visible;visibility:visible;opacity:0.15;isolation:auto;mix-blend-mode:normal;color-interpolation:sRGB;color-interpolation-filters:linearRGB;solid-color:#000000;solid-opacity:1;fill:#000000;fill-opacity:1;fill-rule:evenodd;stroke:none;stroke-width:6;stroke-linecap:round;stroke-linejoin:miter;stroke-miterlimit:4;stroke-dasharray:none;stroke-dashoffset:0;stroke-opacity:1;color-rendering:auto;image-rendering:auto;shape-rendering:auto;text-rendering:auto;enable-background:accumulate" />
  <path
     id="path3384"
     d="m 55.703509,21.988085 a 2.109375,2.109375 0 0 0 -2.109375,2.109375 2.109375,2.109375 0 0 0 0.167542,0.818481 L 40.041583,80.254076 a 1.4064544,1.4064544 0 1 0 2.730102,0.677493 l 6.397706,-25.805056 c 2.237739,-0.198142 6.239191,-0.497987 8.643493,-0.314942 7.944228,0.604816 16.280427,8.18791 23.4375,4.6875 1.255435,-0.614012 1.875,-3.75 1.875,-3.75 l 5.15625,-22.03125 c 0,0 -4.880817,2.358611 -7.5,2.34375 -6.571688,-0.03728 -12.259153,-5.065459 -18.75,-6.09375 -1.816688,-0.287802 -4.8554,-0.175926 -6.603699,-0.08057 l 0.939332,-3.790283 a 2.109375,2.109375 0 0 0 1.445617,-1.999512 2.109375,2.109375 0 0 0 -2.109375,-2.109375 z m 30.234375,15.010986 -4.6875,18.28125 c 0,0 -0.566315,1.990781 -1.40625,2.34375 -6.813012,2.863062 -14.202006,-4.49489 -21.5625,-5.15625 -2.805534,-0.252084 -8.4375,0.46875 -8.4375,0.46875 0,0 4.131064,-5.196029 7.03125,-6.5625 6.557012,-3.089443 14.956751,0.171313 21.5625,-2.8125 3.027403,-1.367476 7.5,-6.5625 7.5,-6.5625 z"
     style="color:#000000;font-style:normal;font-variant:normal;font-weight:normal;font-stretch:normal;font-size:medium;line-height:normal;font-family:sans-serif;text-indent:0;text-align:start;text-decoration:none;text-decoration-line:none;text-decoration-style:solid;text-decoration-color:#000000;letter-spacing:normal;word-spacing:normal;text-transform:none;direction:ltr;block-progression:tb;writing-mode:lr-tb;baseline-shift:baseline;text-anchor:start;white-space:normal;clip-rule:nonzero;display:inline;overflow:visible;visibility:visible;opacity:1;isolation:auto;mix-blend-mode:normal;color-interpolation:sRGB;color-interpolation-filters:linearRGB;solid-color:#000000;solid-opacity:1;fill:#01c6ff;fill-opacity:1;fill-rule:evenodd;stroke:none;stroke-width:6;stroke-linecap:round;stroke-linejoin:miter;stroke-miterlimit:4;stroke-dasharray:none;stroke-dashoffset:0;stroke-opacity:1;color-rendering:auto;image-rendering:auto;shape-rendering:auto;text-rendering:auto;enable-background:accumulate" />
</svg>
