<?xml version="1.0" encoding="UTF-8" standalone="no"?>
<!-- Created with Inkscape (http://www.inkscape.org/) -->

<svg
   xmlns:dc="http://purl.org/dc/elements/1.1/"
   xmlns:cc="http://creativecommons.org/ns#"
   xmlns:rdf="http://www.w3.org/1999/02/22-rdf-syntax-ns#"
   xmlns:svg="http://www.w3.org/2000/svg"
   xmlns="http://www.w3.org/2000/svg"
   xmlns:sodipodi="http://sodipodi.sourceforge.net/DTD/sodipodi-0.dtd"
   xmlns:inkscape="http://www.inkscape.org/namespaces/inkscape"
   width="128"
   height="128"
   viewBox="0 0 128 128"
   id="svg2"
   version="1.1"
   inkscape:version="0.91pre3 r13670"
   sodipodi:docname="net.svg"
   inkscape:export-filename="C:\Users\SiPlus\Desktop\net.png"
   inkscape:export-xdpi="90"
   inkscape:export-ydpi="90">
  <defs
     id="defs4" />
  <sodipodi:namedview
     id="base"
     pagecolor="#c9c9c9"
     bordercolor="#666666"
     borderopacity="1.0"
     inkscape:pageopacity="0"
     inkscape:pageshadow="2"
     inkscape:zoom="4"
     inkscape:cx="49.649773"
     inkscape:cy="67.964156"
     inkscape:document-units="px"
     inkscape:current-layer="layer1"
     showgrid="true"
     units="px"
     inkscape:snap-bbox="true"
     inkscape:bbox-nodes="true"
     inkscape:window-width="1920"
     inkscape:window-height="1017"
     inkscape:window-x="-8"
     inkscape:window-y="-8"
     inkscape:window-maximized="1"
     inkscape:snap-bbox-edge-midpoints="false"
     inkscape:object-nodes="true">
    <inkscape:grid
       type="xygrid"
       id="grid4136"
       spacingx="2px"
       spacingy="2px"
       empspacing="4" />
  </sodipodi:namedview>
  <metadata
     id="metadata7">
    <rdf:RDF>
      <cc:Work
         rdf:about="">
        <dc:format>image/svg+xml</dc:format>
        <dc:type
           rdf:resource="http://purl.org/dc/dcmitype/StillImage" />
        <dc:title />
      </cc:Work>
    </rdf:RDF>
  </metadata>
  <g
     inkscape:label="Layer 1"
     inkscape:groupmode="layer"
     id="layer1"
     transform="translate(0,-924.36216)">
    <rect
       style="opacity:0.25;fill:#f5f8f9;fill-opacity:1;stroke:none;stroke-width:1;stroke-linecap:butt;stroke-linejoin:round;stroke-miterlimit:4;stroke-dasharray:none;stroke-dashoffset:0;stroke-opacity:1"
       id="rect4147"
       width="120"
       height="120.00002"
       x="4"
       y="928.36218" />
    <rect
       y="928.36218"
       x="4"
       height="120.00002"
       width="120"
       id="rect4149"
       style="opacity:0.25;fill:#000000;fill-opacity:1;stroke:none;stroke-width:1;stroke-linecap:butt;stroke-linejoin:round;stroke-miterlimit:4;stroke-dasharray:none;stroke-dashoffset:0;stroke-opacity:1" />
    <g
       id="g4720">
      <path
         style="opacity:0.25;fill:#000000;fill-opacity:1"
         d="m 83.999979,1004.3622 -11.999979,0 20,36 20.00001,-36 -11.99998,0 -3e-5,-24.00008 -16.000051,4e-5 z"
         id="path4157"
         inkscape:connector-curvature="0"
         sodipodi:nodetypes="cccccccc" />
      <path
         sodipodi:nodetypes="cccccccc"
         inkscape:connector-curvature="0"
         id="path4718"
         d="m 83.999979,1000.3622 -11.999979,0 20,36 20.00001,-36 -11.99998,0 -3e-5,-24.00004 -16.000051,4e-5 z"
         style="opacity:1;fill:#e21dff;fill-opacity:1" />
    </g>
    <path
       style="opacity:1;fill:#f5f8f9;fill-opacity:1;stroke:none;stroke-width:1;stroke-linecap:butt;stroke-linejoin:round;stroke-miterlimit:4;stroke-dasharray:none;stroke-dashoffset:0;stroke-opacity:1"
       d="M 0 0 L 0 128 L 128 128 L 128 0 L 0 0 z M 8 8 L 120 8 L 120 120 L 8 120 L 8 8 z "
       transform="translate(0,924.36216)"
       id="rect4138" />
    <g
       id="g4726">
      <path
         style="opacity:0.25;fill:#000000;fill-opacity:1"
         d="m 28,980.36212 -11.999979,0 19.999979,-36 20,36.00004 -11.999979,0 -2.1e-5,24.00004 -16.000021,-10e-5 z"
         id="path4724"
         inkscape:connector-curvature="0"
         sodipodi:nodetypes="cccccccc" />
      <path
         sodipodi:nodetypes="cccccccc"
         inkscape:connector-curvature="0"
         id="path4162-9"
         d="m 28,976.36216 -11.999979,0 19.999979,-36 20,36.00004 -11.999979,0 -2.1e-5,24 -16.000021,-10e-5 z"
         style="opacity:1;fill:#ff7600;fill-opacity:1" />
    </g>
    <g
       id="g4253">
      <path
         sodipodi:nodetypes="ccccccc"
         inkscape:connector-curvature="0"
         id="rect4181-1-8"
         d="m 12,980.36216 0,4.00004 4,0 0,12 4,0 0,-16.00004 z"
         style="opacity:1;fill:#f5f8f9;fill-opacity:1;stroke:none;stroke-width:1;stroke-linecap:butt;stroke-linejoin:round;stroke-miterlimit:4;stroke-dasharray:none;stroke-dashoffset:0;stroke-opacity:1" />
      <path
         inkscape:connector-curvature="0"
         id="rect4181"
         d="m 88,980.36212 0,16.00004 16,0 0,-16.00004 -16,0 z m 4,4.00004 8,0 0,8 -8,0 0,-8 z"
         style="opacity:1;fill:#f5f8f9;fill-opacity:1;stroke:none;stroke-width:1;stroke-linecap:butt;stroke-linejoin:round;stroke-miterlimit:4;stroke-dasharray:none;stroke-dashoffset:0;stroke-opacity:1" />
      <path
         style="opacity:1;fill:#f5f8f9;fill-opacity:1;stroke:none;stroke-width:1;stroke-linecap:butt;stroke-linejoin:round;stroke-miterlimit:4;stroke-dasharray:none;stroke-dashoffset:0;stroke-opacity:1"
         d="m 76,980.36216 0,4 4,0 0,12 4,0 0,-16 z"
         id="path4245"
         inkscape:connector-curvature="0"
         sodipodi:nodetypes="ccccccc" />
      <path
         style="opacity:1;fill:#f5f8f9;fill-opacity:1;stroke:none;stroke-width:1;stroke-linecap:butt;stroke-linejoin:round;stroke-miterlimit:4;stroke-dasharray:none;stroke-dashoffset:0;stroke-opacity:1"
         d="m 44,980.36212 0,4.00004 4,0 0,12 4,0 0,-16.00004 z"
         id="path4247"
         inkscape:connector-curvature="0"
         sodipodi:nodetypes="ccccccc" />
      <path
         sodipodi:nodetypes="ccccccc"
         inkscape:connector-curvature="0"
         id="rect4181-1"
         d="m 108,980.36216 0,4 4,0 0,12 4,0 0,-16 z"
         style="opacity:1;fill:#f5f8f9;fill-opacity:1;stroke:none;stroke-width:1;stroke-linecap:butt;stroke-linejoin:round;stroke-miterlimit:4;stroke-dasharray:none;stroke-dashoffset:0;stroke-opacity:1" />
      <path
         id="rect4177-2"
         d="m 24,980.36208 0,16.00008 16,0 0,-16.00008 -16,0 z m 4,4.00008 8,0 0,8 -8,0 0,-8 z"
         style="opacity:1;fill:#f5f8f9;fill-opacity:1;stroke:none;stroke-width:1;stroke-linecap:butt;stroke-linejoin:round;stroke-miterlimit:4;stroke-dasharray:none;stroke-dashoffset:0;stroke-opacity:1"
         inkscape:connector-curvature="0" />
    </g>
    <g
       id="g4193">
      <path
         inkscape:connector-curvature="0"
         id="path4156-7"
         d="m 52,992.36208 -12,-12 12,-12 12,12 12,-12 12,12 -12,12 12,12.00012 -12,12 -12,-12 -12,12 -12,-12 z"
         style="opacity:0.25;fill:#000000;fill-opacity:1;fill-rule:evenodd;stroke:none;stroke-width:1px;stroke-linecap:butt;stroke-linejoin:miter;stroke-opacity:1" />
      <path
         inkscape:connector-curvature="0"
         id="path4156"
         d="m 52,988.36216 -12,-12 12,-12 12,12 12,-12 12,12 -12,12 12,12.00004 -12,12 -12,-12 -12,12 -12,-12 z"
         style="fill:#ff0101;fill-opacity:1;fill-rule:evenodd;stroke:none;stroke-width:1px;stroke-linecap:butt;stroke-linejoin:miter;stroke-opacity:1" />
    </g>
  </g>
</svg>
