<?xml version="1.0" encoding="UTF-8" standalone="no"?>
<svg
   xmlns:dc="http://purl.org/dc/elements/1.1/"
   xmlns:cc="http://creativecommons.org/ns#"
   xmlns:rdf="http://www.w3.org/1999/02/22-rdf-syntax-ns#"
   xmlns:svg="http://www.w3.org/2000/svg"
   xmlns="http://www.w3.org/2000/svg"
   version="1.1"
   id="svg4157"
   viewBox="0 0 128 128"
   height="128"
   width="128">
  <defs
     id="defs4159">
    <filter
       id="filter4175"
       style="color-interpolation-filters:sRGB;">
      <feGaussianBlur
         id="feGaussianBlur4177"
         result="blur"
         stdDeviation="1 1" />
    </filter>
    <filter
       id="filter4179"
       style="color-interpolation-filters:sRGB;">
      <feGaussianBlur
         id="feGaussianBlur4181"
         result="blur"
         stdDeviation="1 1" />
    </filter>
  </defs>
  <metadata
     id="metadata4162">
    <rdf:RDF>
      <cc:Work
         rdf:about="">
        <dc:format>image/svg+xml</dc:format>
        <dc:type
           rdf:resource="http://purl.org/dc/dcmitype/StillImage" />
        <dc:title></dc:title>
      </cc:Work>
    </rdf:RDF>
  </metadata>
  <g
     transform="translate(0,-924.36216)"
     id="layer1">
    <ellipse
       ry="56.000023"
       rx="56"
       cy="988.36218"
       cx="64"
       id="path4591-5-0-4-5-4-2"
       style="opacity:0.25;fill:#11e346;fill-opacity:1;stroke:none" />
    <ellipse
       ry="56.000023"
       rx="56"
       cy="988.36218"
       cx="64"
       id="path4591-5-0-4-5-4-7-7"
       style="opacity:0.25;fill:#000000;fill-opacity:1;stroke:none" />
    <path
       id="path4839-4"
       d="m 15.708984,958.36216 a 48,48 0 0 0 -7.708984,26 48,48 0 0 0 14.166016,34.00004 l 5.833984,0 0,-10 2,-4 16,0 0,-16.00004 -8,0 2,-4 14,0 0,-8 -10,0 4,-8 0,-10 -32.291016,0 z"
       style="opacity:0.15;fill:#000000;fill-opacity:1;fill-rule:evenodd;stroke:none;stroke-width:1px;stroke-linecap:butt;stroke-linejoin:miter;stroke-opacity:1" />
    <path
       id="path4591-5-0-4-5-4"
       d="m 63.999999,928.36216 c -33.137086,0 -60.0000012,26.86291 -59.999999,59.99999 -3.53e-5,33.13715 26.86289,60.00005 59.999999,60.00005 33.13711,0 60.000041,-26.8629 60.000001,-60.00005 0,-33.13708 -26.862914,-59.99999 -60.000001,-59.99999 z m 10e-7,8 c 28.403216,0 52,23.59679 52,52 0,28.40324 -23.596788,52.00004 -52,52.00004 -28.403212,0 -51.999995,-23.5968 -52,-52.00004 -10e-7,-28.40321 23.596784,-52 52,-52 z"
       style="opacity:1;fill:#11e346;fill-opacity:1;stroke:none" />
    <path
       id="path4839"
       transform="translate(0,924.36216)"
       d="M 26.585938 34 A 48 48 0 0 0 16 64 A 48 48 0 0 0 26.542969 94 L 34 94 L 34 84 L 54 44 L 54 34 L 26.585938 34 z "
       style="fill:#11e346;fill-rule:evenodd;stroke:none;stroke-width:1px;stroke-linecap:butt;stroke-linejoin:miter;stroke-opacity:1;fill-opacity:1" />
    <path
       id="path5405"
       d="m 54,976.36216 6,0 0,8 -10,0 z"
       style="fill:#11e346;fill-rule:evenodd;stroke:none;stroke-width:1px;stroke-linecap:butt;stroke-linejoin:miter;stroke-opacity:1;fill-opacity:1" />
    <path
       id="path5407"
       d="m 48,988.36216 4,0 0,16.00004 -12,0 z"
       style="fill:#11e346;fill-rule:evenodd;stroke:none;stroke-width:1px;stroke-linecap:butt;stroke-linejoin:miter;stroke-opacity:1;fill-opacity:1" />
    <path
       id="rect4928-6-6-6-9-2-4-9-0-2"
       d="m 80,956.36216 -20,26 0,16.00004 20,26 -6,-22 18,10 -10,-14 26,-8 -26,-8.00004 10,-14 -18,10 z"
       style="opacity:0.15;fill:#000000;fill-opacity:1;stroke:none" />
    <path
       id="rect4928-6-6-6-9-2-4-9-0"
       d="m 84,956.36216 -20,26 0,16 20,26.00004 -6,-22 18,10 -10,-14.00004 26,-8 -26,-8 10,-14 -18,10 z"
       style="opacity:1;fill:#11e346;fill-opacity:1;stroke:none" />
  </g>
</svg>
