<?xml version="1.0" encoding="UTF-8" standalone="no"?>
<svg
   xmlns:dc="http://purl.org/dc/elements/1.1/"
   xmlns:cc="http://creativecommons.org/ns#"
   xmlns:rdf="http://www.w3.org/1999/02/22-rdf-syntax-ns#"
   xmlns:svg="http://www.w3.org/2000/svg"
   xmlns="http://www.w3.org/2000/svg"
   version="1.1"
   id="svg4157"
   viewBox="0 0 128 128"
   height="128"
   width="128">
  <defs
     id="defs4159">
    <filter
       id="filter4175"
       style="color-interpolation-filters:sRGB;">
      <feGaussianBlur
         id="feGaussianBlur4177"
         result="blur"
         stdDeviation="1 1" />
    </filter>
    <filter
       id="filter4179"
       style="color-interpolation-filters:sRGB;">
      <feGaussianBlur
         id="feGaussianBlur4181"
         result="blur"
         stdDeviation="1 1" />
    </filter>
  </defs>
  <metadata
     id="metadata4162">
    <rdf:RDF>
      <cc:Work
         rdf:about="">
        <dc:format>image/svg+xml</dc:format>
        <dc:type
           rdf:resource="http://purl.org/dc/dcmitype/StillImage" />
        <dc:title></dc:title>
      </cc:Work>
    </rdf:RDF>
  </metadata>
  <g
     transform="translate(0,-924.36216)"
     id="layer1">
    <ellipse
       ry="56.000023"
       rx="56"
       cy="988.36218"
       cx="64"
       id="path4591-5-0-4-5-4-2"
       style="opacity:0.25;fill:#fe0808;fill-opacity:1;stroke:none" />
    <ellipse
       ry="56.000023"
       rx="56"
       cy="988.36218"
       cx="68"
       id="path4591-5-0-4-5-4-7-7"
       style="opacity:0.25;fill:#000000;fill-opacity:1;stroke:none" />
    <path
       id="path4591-5-0-4-5-4"
       d="m 63.999999,928.36216 c -33.137086,0 -60.0000012,26.86291 -59.999999,59.99999 -3.53e-5,33.13715 26.86289,60.00005 59.999999,60.00005 33.13711,0 60.000041,-26.8629 60.000001,-60.00005 0,-33.13708 -26.862914,-59.99999 -60.000001,-59.99999 z m 10e-7,8 c 28.403216,0 52,23.59679 52,52 0,28.40324 -23.596788,52.00004 -52,52.00004 -28.403212,0 -51.999995,-23.5968 -52,-52.00004 -10e-7,-28.40321 23.596784,-52 52,-52 z"
       style="opacity:1;fill:#fe0808;fill-opacity:1;stroke:none" />
    <path
       id="path3351-9"
       d="m 66,964.36216 -30,10 0,-14 30,-10 30,10 0,14 z"
       style="opacity:0.15;fill:#000000;fill-opacity:1;fill-rule:evenodd;stroke:none;stroke-width:1px;stroke-linecap:butt;stroke-linejoin:miter;stroke-opacity:1" />
    <path
       id="path3351"
       d="m 64,960.36216 -30,10 0,-14 30,-10 30,10 0,14 z"
       style="fill:#fe0808;fill-opacity:1;fill-rule:evenodd;stroke:none;stroke-width:1px;stroke-linecap:butt;stroke-linejoin:miter;stroke-opacity:1" />
    <path
       style="opacity:0.15;fill:#000000;fill-opacity:1;stroke:none"
       d="m 37,988.36216 0,17.00004 14,0 0,-17.00004 c -0.411758,-4.20473 -3,-8 -7,-8 -4,0 -6.588228,3.79528 -7,8 z"
       id="path4789-1-0-5-8-7-9-77-96-0" />
    <path
       style="opacity:1;fill:#fe0808;fill-opacity:1;stroke:none"
       d="m 36,984.36212 0,17.00008 14,0 0,-17.00008 c -0.411758,-4.20473 -3,-8 -7,-8 -4,0 -6.588228,3.79528 -7,8 z"
       id="path4789-1-0-5-8-7-9-77-96" />
    <path
       id="rect4928-6-6-6-9-2-4-9-0-0"
       d="m 42,1007.3622 -7,9 6,-3 2.999993,15 3.000007,-15 6,3 -7,-9 z"
       style="opacity:0.15;fill:#000000;fill-opacity:1;stroke:none" />
    <path
       id="rect4928-6-6-6-9-2-4-9-0"
       d="m 41,1003.3622 -7,9 6,-3 2.999993,15 3.000007,-15 6,3 -7,-9 z"
       style="opacity:1;fill:#fe0808;fill-opacity:1;stroke:none" />
    <path
       id="rect6556-3-8-8-6-9-8-3"
       d="m 55.997577,992.5742 c -2.073601,2.5268 -1.489167,6.6677 1.550982,10.7701 -0.160651,0.1335 -0.308627,0.2813 -0.442555,0.4445 -1.915515,2.3342 -0.308712,6.914 3.572015,10.6311 -0.82997,1.7724 0.317574,4.6201 2.820678,6.7097 0.465092,0.3882 0.947514,0.7211 1.434177,1.0055 l 1.067128,6.2272 1.191765,-5.2886 c 1.597726,0.3908 3.030458,0.1436 3.81921,-0.8176 0.666453,-0.8121 0.747198,-1.9848 0.348027,-3.2397 1.012887,-0.1624 1.855708,-0.5879 2.436309,-1.2954 1.036014,-1.2625 1.043004,-3.1828 0.217345,-5.268 1.546522,-0.1519 2.828683,-0.7284 3.681001,-1.767 2.52408,-3.0757 0.531114,-9.0255 -4.55894,-13.9888 L 74,993.3622 66,980.36216 61.725985,990.62482 c -2.434078,-0.22736 -4.474438,0.42133 -5.728408,1.94938 z m 2.225237,1.8576 c 0.644652,-0.7855 1.523321,-1.3051 2.562211,-1.5571 l -0.785026,1.4875 1.566132,8.1258 c -0.980474,-0.1259 -1.882858,-0.081 -2.654977,0.1475 -2.016648,-3.1057 -2.307924,-6.2302 -0.68834,-8.2037 z m 0.552119,10.7503 c 0.04856,-0.059 0.09958,-0.1153 0.151953,-0.1696 0.73572,0.8065 1.56479,1.6027 2.490514,2.3755 0.377588,0.3152 0.758875,0.6164 1.143064,0.904 l 0.790624,4.613 c -0.697708,0.013 -1.31962,0.1802 -1.814409,0.5109 -2.962826,-2.8874 -4.325374,-6.3284 -2.761746,-8.2338 z m 1.366888,-0.9072 c 0.505467,-0.1618 1.081627,-0.2098 1.702579,-0.1638 l 0.383037,2.2341 c -0.784098,-0.6687 -1.480144,-1.363 -2.085616,-2.0703 z m 12.638876,-6.0084 c 3.414967,3.782 4.643815,8.1784 2.687739,10.5619 -0.629245,0.7668 -1.524329,1.2435 -2.591138,1.4518 -0.5924,-0.9247 -1.325277,-1.847 -2.187917,-2.7308 z m -11.010585,17.1295 c 0.747562,0.6178 1.515426,1.1582 2.286639,1.6267 l 0.723916,4.2258 c -0.292976,-0.1838 -0.582647,-0.3926 -0.864389,-0.6278 -1.91343,-1.5973 -2.74609,-3.7669 -2.146166,-5.2247 z m 0.835162,-1.0177 c 0.273304,-0.1802 0.589043,-0.3024 0.933941,-0.3717 l 0.212544,1.2392 c -0.385986,-0.2679 -0.769294,-0.5562 -1.146485,-0.8675 z m 7.729043,-5.2572 c 0.36222,0.4212 0.68817,0.8482 0.976868,1.276 -0.399024,-0.012 -0.812566,-0.053 -1.237,-0.1225 z m -0.64095,2.8436 c 0.940798,0.2688 1.848804,0.4367 2.703723,0.5003 0.556038,1.5028 0.529654,2.8852 -0.27179,3.8619 -0.405638,0.4942 -0.950098,0.8109 -1.590978,0.9703 -0.423343,-0.6603 -0.96532,-1.3085 -1.612982,-1.9075 z m -0.943409,4.1871 c 0.383783,0.4025 0.708625,0.8262 0.964688,1.2575 -0.38822,0.018 -0.800193,-0.01 -1.230363,-0.079 z m -0.594518,2.6387 c 0.776148,0.194 1.521508,0.2991 2.209855,0.299 0.155172,0.8557 0.01469,1.6487 -0.468017,2.2369 -0.559018,0.6812 -1.470005,0.9608 -2.507849,0.864 z"
       style="opacity:0.15;fill:#000000;fill-opacity:1;stroke:none" />
    <path
       id="rect6556-3-8-8-6-9-8"
       d="m 53.997577,988.57418 c -2.073601,2.52679 -1.489167,6.66768 1.550982,10.77008 -0.160651,0.1335 -0.308627,0.2813 -0.442555,0.4445 -1.915515,2.33424 -0.308712,6.91404 3.572015,10.63114 -0.82997,1.7724 0.317574,4.6201 2.820678,6.7097 0.465092,0.3882 0.947514,0.7211 1.434177,1.0055 l 1.067128,6.2272 1.191765,-5.2886 c 1.597726,0.3908 3.030458,0.1436 3.81921,-0.8176 0.666453,-0.8121 0.747198,-1.9848 0.348027,-3.2397 1.012887,-0.1624 1.855708,-0.5879 2.436309,-1.2954 1.036014,-1.2625 1.043004,-3.1828 0.217345,-5.268 1.546522,-0.1519 2.828683,-0.7284 3.681001,-1.767 2.52408,-3.0757 0.531114,-9.02548 -4.55894,-13.98877 L 72,989.36216 l -8,-13 -4.274015,10.26266 c -2.434078,-0.22736 -4.474438,0.42133 -5.728408,1.94936 z m 2.225237,1.85761 c 0.644652,-0.78554 1.523321,-1.30505 2.562211,-1.55711 l -0.785026,1.48748 1.566132,8.1258 c -0.980474,-0.1259 -1.882858,-0.081 -2.654977,0.1475 -2.016648,-3.10568 -2.307924,-6.23012 -0.68834,-8.20367 z m 0.552119,10.75031 c 0.04856,-0.059 0.09958,-0.1153 0.151953,-0.1696 0.73572,0.8065 1.56479,1.6027 2.490514,2.3755 0.377588,0.3152 0.758875,0.6164 1.143064,0.904 l 0.790624,4.613 c -0.697708,0.013 -1.31962,0.1802 -1.814409,0.5109 -2.962826,-2.8874 -4.325374,-6.3284 -2.761746,-8.2338 z m 1.366888,-0.9072 c 0.505467,-0.1618 1.081627,-0.2098 1.702579,-0.1638 l 0.383037,2.2341 c -0.784098,-0.6687 -1.480144,-1.363 -2.085616,-2.0703 z m 12.638876,-6.00844 c 3.414967,3.78199 4.643815,8.17844 2.687739,10.56194 -0.629245,0.7668 -1.524329,1.2435 -2.591138,1.4518 -0.5924,-0.9247 -1.325277,-1.847 -2.187917,-2.7308 z M 59.770112,1011.396 c 0.747562,0.6178 1.515426,1.1582 2.286639,1.6267 l 0.723916,4.2258 c -0.292976,-0.1838 -0.582647,-0.3926 -0.864389,-0.6278 -1.91343,-1.5973 -2.74609,-3.7669 -2.146166,-5.2247 z m 0.835162,-1.0177 c 0.273304,-0.1802 0.589043,-0.3024 0.933941,-0.3717 l 0.212544,1.2392 c -0.385986,-0.2679 -0.769294,-0.5562 -1.146485,-0.8675 z m 7.729043,-5.2572 c 0.36222,0.4212 0.68817,0.8482 0.976868,1.276 -0.399024,-0.012 -0.812566,-0.053 -1.237,-0.1225 z m -0.64095,2.8436 c 0.940798,0.2688 1.848804,0.4367 2.703723,0.5003 0.556038,1.5028 0.529654,2.8852 -0.27179,3.8619 -0.405638,0.4942 -0.950098,0.8109 -1.590978,0.9703 -0.423343,-0.6603 -0.96532,-1.3085 -1.612982,-1.9075 z m -0.943409,4.1871 c 0.383783,0.4025 0.708625,0.8262 0.964688,1.2575 -0.38822,0.018 -0.800193,-0.01 -1.230363,-0.079 z m -0.594518,2.6387 c 0.776148,0.194 1.521508,0.2991 2.209855,0.299 0.155172,0.8557 0.01469,1.6487 -0.468017,2.2369 -0.559018,0.6812 -1.470005,0.9608 -2.507849,0.864 z"
       style="opacity:1;fill:#fe0808;fill-opacity:1;stroke:none" />
    <path
       style="fill:#000000;fill-opacity:1;stroke:none;opacity:0.15"
       d="m 82,1028.3622 0,-27.0001 2,0 c 0,-5.99998 0,-9.99998 0,-13.99998 0,-4 2,-6.50004 4,-7.00004 2,0.5 4,3.00004 4,7.00004 0,4 0,8 0,13.99998 l 2,0 0,27.0001 z"
       id="rect6742-8-7-30-7-7-4-9-4-1" />
    <path
       style="fill:#fe0808;fill-opacity:1;stroke:none"
       d="m 80,1024.3622 0,-27.00008 2,0 c 0,-5.99996 0,-9.99996 0,-13.99996 0,-4 2,-6.50004 4,-7.00004 2,0.5 4,3.00004 4,7.00004 0,4 0,8 0,13.99996 l 2,0 0,27.00008 z"
       id="rect6742-8-7-30-7-7-4-9-4" />
  </g>
</svg>
