<?xml version="1.0" encoding="UTF-8" standalone="no"?>
<svg
   xmlns:dc="http://purl.org/dc/elements/1.1/"
   xmlns:cc="http://creativecommons.org/ns#"
   xmlns:rdf="http://www.w3.org/1999/02/22-rdf-syntax-ns#"
   xmlns:svg="http://www.w3.org/2000/svg"
   xmlns="http://www.w3.org/2000/svg"
   version="1.1"
   id="svg4157"
   viewBox="0 0 128 128"
   height="128"
   width="128">
  <defs
     id="defs4159">
    <filter
       id="filter4175"
       style="color-interpolation-filters:sRGB;">
      <feGaussianBlur
         id="feGaussianBlur4177"
         result="blur"
         stdDeviation="1 1" />
    </filter>
    <filter
       id="filter4179"
       style="color-interpolation-filters:sRGB;">
      <feGaussianBlur
         id="feGaussianBlur4181"
         result="blur"
         stdDeviation="1 1" />
    </filter>
  </defs>
  <metadata
     id="metadata4162">
    <rdf:RDF>
      <cc:Work
         rdf:about="">
        <dc:format>image/svg+xml</dc:format>
        <dc:type
           rdf:resource="http://purl.org/dc/dcmitype/StillImage" />
        <dc:title></dc:title>
      </cc:Work>
    </rdf:RDF>
  </metadata>
  <g
     transform="translate(0,-924.36216)"
     id="layer1">
    <ellipse
       ry="56.000023"
       rx="56"
       cy="988.36218"
       cx="64"
       id="path4591-5-0-4-5-4-2"
       style="opacity:0.25;fill:#fe0808;fill-opacity:1;stroke:none" />
    <ellipse
       ry="56.000023"
       rx="56"
       cy="988.36218"
       cx="68"
       id="path4591-5-0-4-5-4-7-7"
       style="opacity:0.25;fill:#000000;fill-opacity:1;stroke:none" />
    <path
       style="opacity:0.15;fill:#000000;fill-opacity:1;stroke:none"
       d="m 64,1002.3622 -6,16 -16,-6 8,16 -10,6 c 7.173639,4.039 15.767482,5.9912 24,6 8.224491,-0.02 16.837038,-1.9584 24,-6 l -10,-6 8,-16 -16,6 z"
       id="path4162" />
    <path
       id="path4591-5-0-4-5-4"
       d="m 63.999999,928.36216 c -33.137086,0 -60.0000012,26.86291 -59.999999,59.99999 -3.53e-5,33.13715 26.86289,60.00005 59.999999,60.00005 33.13711,0 60.000041,-26.8629 60.000001,-60.00005 0,-33.13708 -26.862914,-59.99999 -60.000001,-59.99999 z m 10e-7,8 c 28.403216,0 52,23.59679 52,52 0,28.40324 -23.596788,52.00004 -52,52.00004 -28.403212,0 -51.999995,-23.5968 -52,-52.00004 -10e-7,-28.40321 23.596784,-52 52,-52 z"
       style="opacity:1;fill:#fe0808;fill-opacity:1;stroke:none" />
    <path
       id="path6185-80-9-1-5-6-0-4"
       d="m 64,998.3622 -6,16 -16,-6 8,16 -9.498047,5.8261 c 7.173639,4.039 15.265529,6.1651 23.498047,6.1739 8.224491,-0.02 16.305788,-2.1537 23.46875,-6.1953 L 78,1024.3622 l 8,-16 -16,6 z"
       style="fill:#fe0808;fill-opacity:1;stroke:none" />
    <path
       transform="matrix(0.10674025,0.00933856,-0.00927939,0.10606386,273.37628,1062.0235)"
       d="m -1996.2913,-951.97087 23.2598,58.91712 60.5655,-18.54902 -31.5611,54.91942 52.2642,35.78687 -62.6158,9.56628 4.6069,63.17451 -46.5195,-42.99047 -46.5194,42.99047 4.6068,-63.17452 -62.6157,-9.56628 52.2642,-35.78686 -31.5611,-54.91943 60.5655,18.54903 z"
       id="path5454"
       style="opacity:0.15;fill:#000000;fill-opacity:1;stroke:none" />
    <path
       style="fill:#fe0808;fill-opacity:1;stroke:none"
       id="path6185-80-9-1-5-6-0-4-69"
       d="m -1996.2913,-951.97087 23.2598,58.91712 60.5655,-18.54902 -31.5611,54.91942 52.2642,35.78687 -62.6158,9.56628 4.6069,63.17451 -46.5195,-42.99047 -46.5194,42.99047 4.6068,-63.17452 -62.6157,-9.56628 52.2642,-35.78686 -31.5611,-54.91943 60.5655,18.54903 z"
       transform="matrix(0.10674025,0.00933856,-0.00927939,0.10606386,273.37628,1066.0235)" />
    <path
       transform="matrix(0.103497,0.02773194,-0.02755621,0.10284117,281.71933,1128.065)"
       d="m -1996.2913,-951.97087 23.2598,58.91712 60.5655,-18.54902 -31.5611,54.91942 52.2642,35.78687 -62.6158,9.56628 4.6069,63.17451 -46.5195,-42.99047 -46.5194,42.99047 4.6068,-63.17452 -62.6157,-9.56628 52.2642,-35.78686 -31.5611,-54.91943 60.5655,18.54903 z"
       id="path5452"
       style="opacity:0.15;fill:#000000;fill-opacity:1;stroke:none" />
    <path
       style="fill:#fe0808;fill-opacity:1;stroke:none"
       id="path6185-80-9-1-5-6-0-4-69-0"
       d="m -1996.2913,-951.97087 23.2598,58.91712 60.5655,-18.54902 -31.5611,54.91942 52.2642,35.78687 -62.6158,9.56628 4.6069,63.17451 -46.5195,-42.99047 -46.5194,42.99047 4.6068,-63.17452 -62.6157,-9.56628 52.2642,-35.78686 -31.5611,-54.91943 60.5655,18.54903 z"
       transform="matrix(0.103497,0.02773194,-0.02755621,0.10284117,279.71933,1132.065)" />
    <path
       transform="matrix(0.103497,-0.02773194,0.02755621,0.10284117,265.501,1007.3429)"
       d="m -1996.2913,-951.97087 23.2598,58.91712 60.5655,-18.54902 -31.5611,54.91942 52.2642,35.78687 -62.6158,9.56628 4.6069,63.17451 -46.5195,-42.99047 -46.5194,42.99047 4.6068,-63.17452 -62.6157,-9.56628 52.2642,-35.78686 -31.5611,-54.91943 60.5655,18.54903 z"
       id="path5450"
       style="opacity:0.15;fill:#000000;fill-opacity:1;stroke:none" />
    <path
       style="fill:#fe0808;fill-opacity:1;stroke:none"
       id="path6185-80-9-1-5-6-0-4-69-8"
       d="m -1996.2913,-951.97087 23.2598,58.91712 60.5655,-18.54902 -31.5611,54.91942 52.2642,35.78687 -62.6158,9.56628 4.6069,63.17451 -46.5195,-42.99047 -46.5194,42.99047 4.6068,-63.17452 -62.6157,-9.56628 52.2642,-35.78686 -31.5611,-54.91943 60.5655,18.54903 z"
       transform="matrix(0.103497,-0.02773194,0.02755621,0.10284117,267.501,1011.3429)" />
    <path
       id="path5458"
       d="m 46,990.36216 c 0,0 6.055151,7.60356 8,12.00004 1.112015,2.5137 2,8 2,8"
       style="fill:none;fill-rule:evenodd;stroke:#fe0808;stroke-width:2;stroke-linecap:butt;stroke-linejoin:miter;stroke-miterlimit:4;stroke-dasharray:4, 2;stroke-dashoffset:0;stroke-opacity:1" />
    <path
       id="path5460"
       d="m 72,1010.3622 c 0,0 4.600648,-8.6007 8,-12.00004 1.699672,-1.69967 6,-4 6,-4"
       style="fill:none;fill-rule:evenodd;stroke:#fe0808;stroke-width:2;stroke-linecap:butt;stroke-linejoin:miter;stroke-miterlimit:4;stroke-dasharray:4, 2;stroke-dashoffset:0;stroke-opacity:1" />
    <path
       id="path5462"
       d="m 64,996.36216 c 0,0 -0.439896,-10.68484 0,-16 0.334473,-4.04136 2,-12 2,-12"
       style="fill:none;fill-rule:evenodd;stroke:#fe0808;stroke-width:2;stroke-linecap:butt;stroke-linejoin:miter;stroke-miterlimit:4;stroke-dasharray:4, 2;stroke-dashoffset:0;stroke-opacity:1" />
  </g>
</svg>
