<?xml version="1.0" encoding="UTF-8" standalone="no"?>
<svg
   xmlns:dc="http://purl.org/dc/elements/1.1/"
   xmlns:cc="http://creativecommons.org/ns#"
   xmlns:rdf="http://www.w3.org/1999/02/22-rdf-syntax-ns#"
   xmlns:svg="http://www.w3.org/2000/svg"
   xmlns="http://www.w3.org/2000/svg"
   xmlns:xlink="http://www.w3.org/1999/xlink"
   version="1.1"
   id="svg4157"
   viewBox="0 0 128 128"
   height="128"
   width="128">
  <defs
     id="defs4159">
    <linearGradient
       id="linearGradient4752">
      <stop
         id="stop4754"
         offset="0"
         style="stop-color:#fe0808;stop-opacity:0.85" />
      <stop
         id="stop4756"
         offset="1"
         style="stop-color:#fe0808;stop-opacity:0;" />
    </linearGradient>
    <filter
       id="filter4175"
       style="color-interpolation-filters:sRGB;">
      <feGaussianBlur
         id="feGaussianBlur4177"
         result="blur"
         stdDeviation="1 1" />
    </filter>
    <filter
       id="filter4179"
       style="color-interpolation-filters:sRGB;">
      <feGaussianBlur
         id="feGaussianBlur4181"
         result="blur"
         stdDeviation="1 1" />
    </filter>
    <linearGradient
       gradientTransform="translate(-808.13245,-334.73943)"
       gradientUnits="userSpaceOnUse"
       y2="949.36218"
       x2="116"
       y1="936.36218"
       x1="90"
       id="linearGradient4758"
       xlink:href="#linearGradient4752" />
  </defs>
  <metadata
     id="metadata4162">
    <rdf:RDF>
      <cc:Work
         rdf:about="">
        <dc:format>image/svg+xml</dc:format>
        <dc:type
           rdf:resource="http://purl.org/dc/dcmitype/StillImage" />
        <dc:title></dc:title>
      </cc:Work>
    </rdf:RDF>
  </metadata>
  <g
     transform="translate(0,-924.36216)"
     id="layer1">
    <ellipse
       ry="56.000023"
       rx="56"
       cy="988.36218"
       cx="64"
       id="path4591-5-0-4-5-4-2"
       style="opacity:0.25;fill:#fe0808;fill-opacity:1;stroke:none" />
    <ellipse
       ry="56.000023"
       rx="56"
       cy="988.36218"
       cx="68"
       id="path4591-5-0-4-5-4-7-7"
       style="opacity:0.25;fill:#000000;fill-opacity:1;stroke:none" />
    <path
       id="path4591-5-0-4-5-4"
       d="m 63.999999,928.36216 c -33.137086,0 -60.0000012,26.86291 -59.999999,59.99999 -3.53e-5,33.13715 26.86289,60.00005 59.999999,60.00005 33.13711,0 60.000041,-26.8629 60.000001,-60.00005 0,-33.13708 -26.862914,-59.99999 -60.000001,-59.99999 z m 10e-7,8 c 28.403216,0 52,23.59679 52,52 0,28.40324 -23.596788,52.00004 -52,52.00004 -28.403212,0 -51.999995,-23.5968 -52,-52.00004 -10e-7,-28.40321 23.596784,-52 52,-52 z"
       style="opacity:1;fill:#fe0808;fill-opacity:1;stroke:none" />
    <rect
       y="932.36218"
       x="62"
       height="112"
       width="4"
       id="rect4746"
       style="opacity:1;fill:#fe0808;fill-opacity:1;stroke:none" />
    <rect
       y="986.36218"
       x="8"
       height="4"
       width="112"
       id="rect4748"
       style="opacity:1;fill:#fe0808;fill-opacity:1;stroke:none" />
    <path
       transform="matrix(-0.70710678,-0.70710678,-0.70710678,0.70710678,0,0)"
       d="m -744.13245,601.62274 a 52,52 0 0 1 36.76955,15.23045 l -36.76955,36.76955 z"
       id="path4750"
       style="opacity:1;fill:url(#linearGradient4758);fill-opacity:1;stroke:none" />
    <path
       id="path6963"
       transform="translate(0,924.36216)"
       d="M 64 26 A 38 38 0 0 0 26 64 A 38 38 0 0 0 64 102 A 38 38 0 0 0 102 64 A 38 38 0 0 0 64 26 z M 64 30 A 34.000023 34.000023 0 0 1 98 64 A 34.000023 34.000023 0 0 1 64 98 A 34.000023 34.000023 0 0 1 30 64 A 34.000023 34.000023 0 0 1 64 30 z "
       style="opacity:1;fill:#fe0808;fill-opacity:1;stroke:none" />
    <path
       id="path6979"
       transform="translate(0,924.36216)"
       d="M 64 44 A 20 20 0 0 0 44 64 A 20 20 0 0 0 64 84 A 20 20 0 0 0 84 64 A 20 20 0 0 0 64 44 z M 64 48 A 16 16 0 0 1 80 64 A 16 16 0 0 1 64 80 A 16 16 0 0 1 48 64 A 16 16 0 0 1 64 48 z "
       style="opacity:1;fill:#fe0808;fill-opacity:1;stroke:none" />
  </g>
</svg>
