<?xml version="1.0" encoding="UTF-8" standalone="no"?>
<!-- Created with Inkscape (http://www.inkscape.org/) -->

<svg
   xmlns:dc="http://purl.org/dc/elements/1.1/"
   xmlns:cc="http://creativecommons.org/ns#"
   xmlns:rdf="http://www.w3.org/1999/02/22-rdf-syntax-ns#"
   xmlns:svg="http://www.w3.org/2000/svg"
   xmlns="http://www.w3.org/2000/svg"
   xmlns:xlink="http://www.w3.org/1999/xlink"
   xmlns:sodipodi="http://sodipodi.sourceforge.net/DTD/sodipodi-0.dtd"
   xmlns:inkscape="http://www.inkscape.org/namespaces/inkscape"
   width="128"
   height="128"
   viewBox="0 0 128 128"
   id="svg4157"
   version="1.1"
   inkscape:version="0.48.4 r9939"
   sodipodi:docname="riot.svg"
   inkscape:export-filename="D:\downloads\icons\weapon\riot.png"
   inkscape:export-xdpi="90"
   inkscape:export-ydpi="90"
   shape-rendering="crispEdges">
  <defs
     id="defs4159">
    <filter
       style="color-interpolation-filters:sRGB;"
       inkscape:label="Blur"
       id="filter4175">
      <feGaussianBlur
         stdDeviation="1 1"
         result="blur"
         id="feGaussianBlur4177" />
    </filter>
    <filter
       style="color-interpolation-filters:sRGB;"
       inkscape:label="Blur"
       id="filter4179">
      <feGaussianBlur
         stdDeviation="1 1"
         result="blur"
         id="feGaussianBlur4181" />
    </filter>
    <clipPath
       clipPathUnits="userSpaceOnUse"
       id="clipPath3015">
      <path
         inkscape:export-ydpi="90"
         inkscape:export-xdpi="90"
         inkscape:export-filename="/home/style/allicons.png"
         sodipodi:nodetypes="ccccc"
         inkscape:connector-curvature="0"
         id="path3017"
         d="M -255.00959,727.77687 -87.516134,784.39038 -215.83828,853.4991 -493.77329,784.37267 Z"
         style="fill:#00d3e5;fill-opacity:1;stroke:none" />
    </clipPath>
    <linearGradient
       y2="357.63239"
       x2="1074.4446"
       y1="357.63239"
       x1="740.82019"
       gradientTransform="matrix(0.70710678,0.70710678,-0.70710678,0.70710678,235.94788,695.47198)"
       gradientUnits="userSpaceOnUse"
       id="linearGradient4078"
       xlink:href="#linearGradient3837-2-7"
       inkscape:collect="always" />
    <linearGradient
       id="linearGradient3837-2-7">
      <stop
         id="stop3839-9-8"
         offset="0"
         style="stop-color:#2e4f67;stop-opacity:0.20353982;" />
      <stop
         id="stop3841-81-8"
         offset="1"
         style="stop-color:#7e9cbd;stop-opacity:0.10619469;" />
    </linearGradient>
    <linearGradient
       y2="357.63239"
       x2="1074.4446"
       y1="357.63239"
       x1="740.82019"
       gradientTransform="matrix(0.70710678,0.70710678,-0.70710678,0.70710678,-1476.0521,355.47198)"
       gradientUnits="userSpaceOnUse"
       id="linearGradient4174"
       xlink:href="#linearGradient3837-2-7"
       inkscape:collect="always" />
    <clipPath
       id="clipPath8398-05"
       clipPathUnits="userSpaceOnUse">
      <rect
         ry="33.474174"
         y="-834.57935"
         x="-2447.2148"
         height="272.94321"
         width="272.94321"
         id="rect8400-7"
         style="fill:#7a878c;fill-opacity:1;stroke:none" />
    </clipPath>
    <clipPath
       id="clipPath8708-2"
       clipPathUnits="userSpaceOnUse">
      <rect
         ry="33.474174"
         y="-833.16516"
         x="-2153.0583"
         height="272.94321"
         width="272.94321"
         id="rect8710-7"
         style="fill:#ebe24b;fill-opacity:1;stroke:none" />
    </clipPath>
    <clipPath
       id="clipPath9000-0"
       clipPathUnits="userSpaceOnUse">
      <rect
         ry="33.474174"
         y="-541.83716"
         x="-2444.3862"
         height="272.94321"
         width="272.94321"
         id="rect9002-8"
         style="fill:#25cb5e;fill-opacity:1;stroke:none" />
    </clipPath>
    <filter
       id="filter4175-4"
       inkscape:label="Blur"
       style="color-interpolation-filters:sRGB;">
      <feGaussianBlur
         id="feGaussianBlur4177-0"
         result="blur"
         stdDeviation="1 1" />
    </filter>
    <filter
       id="filter4179-9"
       inkscape:label="Blur"
       style="color-interpolation-filters:sRGB;">
      <feGaussianBlur
         id="feGaussianBlur4181-3"
         result="blur"
         stdDeviation="1 1" />
    </filter>
    <clipPath
       id="clipPath3015-7"
       clipPathUnits="userSpaceOnUse">
      <path
         style="fill:#00d3e5;fill-opacity:1;stroke:none"
         d="M -255.00959,727.77687 -87.516134,784.39038 -215.83828,853.4991 -493.77329,784.37267 Z"
         id="path3017-3"
         inkscape:connector-curvature="0"
         sodipodi:nodetypes="ccccc"
         inkscape:export-filename="/home/style/allicons.png"
         inkscape:export-xdpi="90"
         inkscape:export-ydpi="90" />
    </clipPath>
    <clipPath
       clipPathUnits="userSpaceOnUse"
       id="clipPath3107">
      <path
         sodipodi:nodetypes="ccczcccc"
         inkscape:connector-curvature="0"
         id="path3109"
         d="m -891.68389,621.48382 136.35082,-1.2e-4 6e-5,4.96764 c 0,0 110.79005,4.2879 110.79006,26.92945 -1.2e-4,22.6414 -110.79011,26.53735 -110.79011,26.53735 l -10e-6,5.35974 -136.35082,1.3e-4 z"
         style="fill:#bcc8ca;fill-opacity:1;stroke:none" />
    </clipPath>
    <clipPath
       clipPathUnits="userSpaceOnUse"
       id="clipPath3111">
      <path
         sodipodi:nodetypes="ccczcccc"
         inkscape:connector-curvature="0"
         id="path3113"
         d="m -891.68389,697.17069 136.3509,-7e-5 -7e-5,4.9675 c 0,0 110.79016,4.28808 110.79004,26.92947 0,22.64156 -110.79004,26.53742 -110.79004,26.53742 l 0,5.35987 -136.3509,-7e-5 z"
         style="fill:#bcc8ca;fill-opacity:1;stroke:none" />
    </clipPath>
    <clipPath
       clipPathUnits="userSpaceOnUse"
       id="clipPath3115">
      <path
         sodipodi:nodetypes="ccczcccc"
         inkscape:connector-curvature="0"
         id="path3117"
         d="m -891.68396,772.9917 136.35083,-1.4e-4 0,4.96757 c 0,0 110.79006,4.28789 110.79006,26.92945 0,22.64156 -110.79006,26.53744 -110.79006,26.53744 l -7e-5,5.35965 -136.35084,1.5e-4 z"
         style="fill:#bcc8ca;fill-opacity:1;stroke:none" />
    </clipPath>
    <clipPath
       clipPathUnits="userSpaceOnUse"
       id="clipPath5174-4-4">
      <path
         sodipodi:nodetypes="cccccccc"
         style="fill:#eaedee;fill-opacity:1;stroke:none"
         d="m 4145.7613,-2590.5875 -65.0383,106.3148 64.8258,-31.542 23.7225,131.3778 24.1796,-131.2903 64.8256,31.542 -65.0532,-106.2492 z"
         id="path5176-9-0"
         inkscape:connector-curvature="0" />
    </clipPath>
    <clipPath
       clipPathUnits="userSpaceOnUse"
       id="clipPath3796">
      <path
         sodipodi:nodetypes="ccccccccccc"
         inkscape:connector-curvature="0"
         id="path3798"
         d="m 255.91389,623.41249 c -32.72787,0 -59.17485,25.15498 -59.85892,56.42677 l -0.10062,-2.1e-4 1.6e-4,1.21115 -7e-5,129.85245 120.02029,9e-5 1.2e-4,-129.85254 -2.2e-4,-1.21108 -0.10084,-4.2e-4 c -0.68383,-31.27172 -27.23177,-56.4268 -59.95964,-56.4268 z"
         style="fill:#e00000;fill-opacity:1;stroke:none" />
    </clipPath>
    <clipPath
       clipPathUnits="userSpaceOnUse"
       id="clipPath5174-4-4-2">
      <path
         sodipodi:nodetypes="cccccccc"
         style="fill:#eaedee;fill-opacity:1;stroke:none"
         d="m 4145.7613,-2590.5875 -65.0383,106.3148 64.8258,-31.542 23.7225,131.3778 24.1796,-131.2903 64.8256,31.542 -65.0532,-106.2492 z"
         id="path5176-9-0-0"
         inkscape:connector-curvature="0" />
    </clipPath>
    <clipPath
       clipPathUnits="userSpaceOnUse"
       id="clipPath5174-4-4-9">
      <path
         sodipodi:nodetypes="cccccccc"
         style="fill:#eaedee;fill-opacity:1;stroke:none"
         d="m 4145.7613,-2590.5875 -65.0383,106.3148 64.8258,-31.542 23.7225,131.3778 24.1796,-131.2903 64.8256,31.542 -65.0532,-106.2492 z"
         id="path5176-9-0-5"
         inkscape:connector-curvature="0" />
    </clipPath>
    <clipPath
       clipPathUnits="userSpaceOnUse"
       id="clipPath3808">
      <path
         inkscape:connector-curvature="0"
         id="path3810"
         d="m 157.87998,678.48703 -2.8e-4,201.50776 -11.09026,0 -8e-5,25.00039 11.0904,-1.4e-4 80.79735,-7e-5 11.12181,1e-5 -1e-5,-25.00033 -11.12179,0 1.4e-4,-201.50762 -80.79728,0 z"
         style="fill:#e87300;fill-opacity:1;stroke:none" />
    </clipPath>
    <clipPath
       clipPathUnits="userSpaceOnUse"
       id="clipPath3812">
      <path
         sodipodi:nodetypes="ccccccccccc"
         id="path3814"
         d="m 272.70942,678.49322 -1.3e-4,201.50762 -11.09063,6e-5 7e-5,25.0004 11.09042,10e-6 80.79735,-6e-5 11.12173,-8e-5 0,-25.00032 -11.1218,0 1.9e-4,-201.5077 z"
         style="fill:#e87300;fill-opacity:1;stroke:none"
         inkscape:connector-curvature="0" />
    </clipPath>
  </defs>
  <sodipodi:namedview
     id="base"
     pagecolor="#4f4f4f"
     bordercolor="#666666"
     borderopacity="1.0"
     inkscape:pageopacity="0"
     inkscape:pageshadow="2"
     inkscape:zoom="4"
     inkscape:cx="-8.2037605"
     inkscape:cy="54.496845"
     inkscape:document-units="px"
     inkscape:current-layer="layer1"
     showgrid="true"
     units="px"
     inkscape:window-width="1600"
     inkscape:window-height="843"
     inkscape:window-x="-7"
     inkscape:window-y="27"
     inkscape:window-maximized="1"
     inkscape:object-nodes="true"
     inkscape:object-paths="true"
     inkscape:snap-intersection-paths="true"
     inkscape:snap-bbox="true"
     inkscape:snap-smooth-nodes="true"
     inkscape:snap-global="true">
    <inkscape:grid
       type="xygrid"
       id="grid3336"
       empspacing="4"
       dotted="false"
       color="#ffffff"
       opacity="1"
       empcolor="#0000e6"
       empopacity="0.25098039" />
  </sodipodi:namedview>
  <metadata
     id="metadata4162">
    <rdf:RDF>
      <cc:Work
         rdf:about="">
        <dc:format>image/svg+xml</dc:format>
        <dc:type
           rdf:resource="http://purl.org/dc/dcmitype/StillImage" />
        <dc:title />
      </cc:Work>
    </rdf:RDF>
  </metadata>
  <g
     inkscape:label="Layer 1"
     inkscape:groupmode="layer"
     id="layer1"
     transform="translate(0,-924.36216)">
    <path
       sodipodi:nodetypes="ccccccccc"
       id="rect7215-3-4-2-5-0"
       d="m 98,962.36216 -52,52.00004 -2,-2 -6,6 c 9.735017,9.7343 17.214773,17.2156 26,26 l 6,-6 -2,-2 52,-52.00004 z"
       style="fill:#f16e00;fill-opacity:1;stroke:none"
       inkscape:connector-curvature="0" />
    <path
       style="fill:#000000;fill-opacity:1;stroke:none;opacity:0.2"
       d="M 109 49 L 51 107 C 55.18497 111.18516 59.607386 115.6078 64 120 L 70 114 L 68 112 L 120 60 L 109 49 z "
       transform="translate(0,924.36216)"
       id="rect7215-3-4-2-5-0-2"
       inkscape:export-xdpi="90"
       inkscape:export-ydpi="90" />
    <path
       sodipodi:nodetypes="ccccccccc"
       id="rect7215-3-4-2-5-0-9"
       d="m 68,932.36212 -52,52.00004 -2,-2 -6,6 c 9.735017,9.7343 17.214773,17.21564 26,26.00004 l 6,-6 -2,-2 52,-52.00008 z"
       style="fill:#f16e00;fill-opacity:1;stroke:none"
       inkscape:connector-curvature="0" />
    <path
       inkscape:connector-curvature="0"
       style="opacity:0.2;fill:#000000;fill-opacity:1;stroke:none"
       d="m 79,943.36212 -58,58.00008 c 4.18497,4.1851 8.607386,8.6078 13,13 l 6,-6 -2,-2 52,-52.00008 -11,-11 z"
       id="rect7215-3-4-2-5-0-2-7" />
  </g>
</svg>
